<?xml version="1.0" encoding="UTF-8"?>
<svg width="50px" height="50px" viewBox="0 0 50 50" version="1.1" xmlns="http://www.w3.org/2000/svg" xmlns:xlink="http://www.w3.org/1999/xlink">
    <!-- Generator: Sketch 53 (72520) - https://sketchapp.com -->
    <title>active icon</title>
    <desc>Created with Sketch.</desc>
    <g id="Symbols" stroke="none" stroke-width="1" fill="none" fill-rule="evenodd">
        <g id="cards/appFeature/none" transform="translate(-290.000000, -30.000000)" fill="#36B44E">
            <g id="active-icon" transform="translate(290.000000, 30.000000)">
                <circle id="Oval" fill-opacity="0.1" cx="25" cy="25" r="25"></circle>
                <g id="icons/search/active" transform="translate(13.000000, 13.000000)" stroke-linecap="round" stroke-linejoin="round">
                    <g id="Group" transform="translate(5.000000, 5.000000)">
                        <g fill-rule="nonzero" id="Combined-Shape">
                            <path d="M11.4629322,10.0487187 L13.7071069,12.2928933 C14.0976312,12.6834176 14.0976312,13.3165826 13.7071069,13.7071069 C13.3165826,14.0976312 12.6834176,14.0976312 12.2928933,13.7071069 L10.0487187,11.4629322 C9.00508101,12.2201542 7.7213515,12.6666667 6.33333338,12.6666667 C2.83552995,12.6666667 1.25000046e-08,9.83113681 1.25000046e-08,6.33333338 C1.25000046e-08,2.83552995 2.83552995,1.24999993e-08 6.33333338,1.24999993e-08 C9.83113681,1.24999993e-08 12.6666667,2.83552995 12.6666667,6.33333338 C12.6666667,7.7213515 12.2201542,9.00508101 11.4629322,10.0487187 Z M9.46946548,9.32373798 C10.2112236,8.54606302 10.6666667,7.49288542 10.6666667,6.33333338 C10.6666667,3.94009944 8.72656731,2.00000001 6.33333338,2.00000001 C3.94009944,2.00000001 2.00000001,3.94009944 2.00000001,6.33333338 C2.00000001,8.72656731 3.94009944,10.6666667 6.33333338,10.6666667 C7.49288542,10.6666667 8.54606302,10.2112236 9.32373798,9.46946548 C9.34523994,9.44305937 9.36829171,9.41749487 9.39289329,9.39289329 C9.41749487,9.36829171 9.44305937,9.34523994 9.46946548,9.32373798 Z"></path>
                        </g>
                    </g>
                </g>
            </g>
        </g>
    </g>
</svg>