<?xml version="1.0" encoding="UTF-8"?>
<svg width="24px" height="24px" viewBox="0 0 24 24" version="1.1" xmlns="http://www.w3.org/2000/svg" xmlns:xlink="http://www.w3.org/1999/xlink">
    <!-- Generator: Sketch 52.6 (67491) - http://www.bohemiancoding.com/sketch -->
    <title>icons/servicesB2C/alert</title>
    <desc>Created with Sketch.</desc>
    <g id="icons/servicesB2C/alert" stroke="none" stroke-width="1" fill="none" fill-rule="evenodd">
        <path d="M10.0021326,6.05946222 L10.005,6.0547053 C10.4279933,5.35736684 11.1843995,4.93150396 12,4.93150396 C12.8156005,4.93150396 13.5720067,5.35736684 13.9978674,6.05946222 L19.6526572,15.4999396 C20.067242,16.2179059 20.0697173,17.1019444 19.6591596,17.822221 C19.2486019,18.5424976 18.4866765,18.9908277 17.6466667,19 L6.34234277,18.9999396 C5.51332345,18.9908277 4.75139805,18.5424976 4.34084037,17.822221 C3.93028268,17.1019444 3.93275799,16.2179059 4.35546587,15.4861289 L10.0021326,6.05946222 Z M6.07932382,16.5000604 C6.02009742,16.602627 6.01974381,16.7289182 6.07839491,16.8318149 C6.13704601,16.9347116 6.24589249,16.9987587 6.3533333,17 L17.6356762,17.0000604 C17.7541075,16.9987587 17.862954,16.9347116 17.9216051,16.8318149 C17.9802562,16.7289182 17.9799026,16.602627 17.9287993,16.5138711 L12.285,7.0919613 C12.2245724,6.99234151 12.1165144,6.93150396 12,6.93150396 C11.8841023,6.93150396 11.7765717,6.9916992 11.7159635,7.09038272 L6.07932382,16.5000604 Z M11,9.99999999 C11,9.44771524 11.4477153,8.99999999 12,8.99999999 C12.5522847,8.99999999 13,9.44771524 13,9.99999999 L13,12.6666667 C13,13.2189514 12.5522847,13.6666667 12,13.6666667 C11.4477153,13.6666667 11,13.2189514 11,12.6666667 L11,9.99999999 Z" id="Combined-Shape" fill="#36B44E" fill-rule="nonzero"></path>
    </g>
</svg>