<?xml version="1.0" encoding="UTF-8"?>
<svg width="116px" height="31px" viewBox="0 0 116 31" version="1.1" xmlns="http://www.w3.org/2000/svg" xmlns:xlink="http://www.w3.org/1999/xlink">
    <!-- Generator: Sketch 52.6 (67491) - http://www.bohemiancoding.com/sketch -->
    <title>Group 3</title>
    <desc>Created with Sketch.</desc>
    <g id="UI" stroke="none" stroke-width="1" fill="none" fill-rule="evenodd">
        <g id="Home" transform="translate(-960.000000, -552.000000)" fill="#FFFFFF">
            <g id="ATF_CONTENT" transform="translate(735.000000, 343.000000)">
                <g id="appStoreBadges" transform="translate(198.000000, 199.000000)">
                    <g id="Appstore">
                        <g id="Group-3" transform="translate(27.000000, 10.000000)">
                            <path d="M41.8451227,27.3476849 L44.2403036,27.3476849 L38.9970715,12.4176831 L36.5716993,12.4176831 L31.3284672,27.3476849 L33.6431378,27.3476849 L34.9816212,23.3849748 L40.5167031,23.3849748 L41.8451227,27.3476849 Z M37.6686519,15.1284665 L37.8397362,15.1284665 L39.9430673,21.4398325 L35.555257,21.4398325 L37.6686519,15.1284665 Z M50.5911656,15.8941077 C49.1017253,15.8941077 47.8135608,16.6597488 47.149351,17.942715 L46.9883304,17.942715 L46.9883304,16.0803447 L44.9051269,16.0803447 L44.9051269,31 L47.0688407,31 L47.0688407,25.6405122 L47.2399251,25.6405122 C47.8135608,26.8303599 49.0514064,27.533922 50.6112931,27.533922 C53.3788341,27.533922 55.1399965,25.2887311 55.1399965,21.7088416 C55.1399965,18.128952 53.3788341,15.8941077 50.5911656,15.8941077 L50.5911656,15.8941077 Z M49.9772747,25.5370472 C48.1657933,25.5370472 47.0285856,24.0678439 47.0285856,21.7191881 C47.0285856,19.3601857 48.1657933,17.8909825 49.9873384,17.8909825 C51.8189474,17.8909825 52.9158999,19.3291462 52.9158999,21.7088416 C52.9158999,24.0988834 51.8189474,25.5370472 49.9772747,25.5370472 L49.9772747,25.5370472 Z M61.8128996,15.8941077 C60.3234593,15.8941077 59.0352948,16.6597488 58.371085,17.942715 L58.2100644,17.942715 L58.2100644,16.0803447 L56.1268609,16.0803447 L56.1268609,31 L58.2905747,31 L58.2905747,25.6405122 L58.4616591,25.6405122 C59.0352948,26.8303599 60.2731404,27.533922 61.8330271,27.533922 C64.6005681,27.533922 66.3617305,25.2887311 66.3617305,21.7088416 C66.3617305,18.128952 64.6005681,15.8941077 61.8128996,15.8941077 L61.8128996,15.8941077 Z M61.1990087,25.5370472 C59.3875273,25.5370472 58.2503196,24.0678439 58.2503196,21.7191881 C58.2503196,19.3601857 59.3875273,17.8909825 61.2090724,17.8909825 C63.0406814,17.8909825 64.1376339,19.3291462 64.1376339,21.7088416 C64.1376339,24.0988834 63.0406814,25.5370472 61.1990087,25.5370472 L61.1990087,25.5370472 Z M70.9419797,23.3332423 C71.1030002,26.0026397 73.2667141,27.7098125 76.4871253,27.7098125 C79.9289399,27.7098125 82.0825899,25.9198677 82.0825899,23.0642333 C82.0825899,20.8190424 80.8548081,19.5774622 77.8759277,18.8635536 L76.2757858,18.4600401 C74.3837942,18.004794 73.6189465,17.3943504 73.6189465,16.3286607 C73.6189465,14.9836155 74.8064732,14.1041629 76.5877632,14.1041629 C78.2784791,14.1041629 79.4458782,14.9629225 79.6572177,16.3390072 L81.8511229,16.3390072 C81.7202937,13.8248073 79.5666436,12.0555556 76.6179545,12.0555556 C73.4478622,12.0555556 71.3344673,13.8248073 71.3344673,16.4838582 C71.3344673,18.6773166 72.5320577,19.9809758 75.1587057,20.6121124 L77.0305697,21.077705 C78.9527527,21.5432975 79.7981107,22.2261666 79.7981107,23.3642818 C79.7981107,24.688634 78.469691,25.6508587 76.6582097,25.6508587 C74.7158991,25.6508587 73.3673519,24.750713 73.17614,23.3332423 L70.9419797,23.3332423 Z M83.9450037,13.3488683 L83.9450037,16.1320772 L82.1435861,16.1320772 L82.1435861,18.004794 L83.9450037,18.004794 L83.9450037,24.3678925 C83.9450037,26.5406578 84.9010633,27.4097639 87.3063079,27.4097639 C87.7289869,27.4097639 88.1214745,27.3580314 88.4636432,27.2959524 L88.4636432,25.4439286 C88.1617297,25.4749681 87.9906453,25.4956611 87.6585404,25.4956611 C86.5817154,25.4956611 86.1087175,24.9783361 86.1087175,23.7988349 L86.1087175,18.004794 L88.5642811,18.004794 L88.5642811,16.1320772 L86.1087175,16.1320772 L86.1087175,13.3488683 L83.9450037,13.3488683 Z M93.9288921,25.5887797 C92.0469642,25.5887797 90.9902668,24.1713089 90.9902668,21.7088416 C90.9902668,19.2670672 92.0469642,17.83925 93.9288921,17.83925 C95.8007561,17.83925 96.8675174,19.2670672 96.8675174,21.7088416 C96.8675174,24.1609624 95.8007561,25.5887797 93.9288921,25.5887797 L93.9288921,25.5887797 Z M93.9288921,27.5649615 C97.1291758,27.5649615 99.0916139,25.3611566 99.0916139,21.7088416 C99.0916139,18.0772195 97.119112,15.8630681 93.9288921,15.8630681 C90.7286084,15.8630681 88.7561064,18.0772195 88.7561064,21.7088416 C88.7561064,25.3611566 90.7185446,27.5649615 93.9288921,27.5649615 L93.9288921,27.5649615 Z M100.078478,27.3476849 L102.242192,27.3476849 L102.242192,20.6948844 C102.242192,19.1118697 103.399527,18.04618 105.029861,18.04618 C105.392157,18.04618 106.056367,18.1186055 106.227451,18.1806845 L106.227451,15.9872262 C105.995984,15.9251472 105.583369,15.8941077 105.271391,15.8941077 C103.842334,15.8941077 102.63468,16.7011348 102.322702,17.8082104 L102.161682,17.8082104 L102.161682,16.0803447 L100.078478,16.0803447 L100.078478,27.3476849 Z M111.098937,17.7564779 C112.699078,17.7564779 113.745712,18.9049396 113.796031,20.6741914 L108.260949,20.6741914 C108.381715,18.9152861 109.498795,17.7564779 111.098937,17.7564779 L111.098937,17.7564779 Z M113.785967,24.3058135 C113.383416,25.1852661 112.487739,25.6715517 111.179447,25.6715517 C109.448476,25.6715517 108.331396,24.419625 108.260949,22.4434432 L108.260949,22.3192852 L116,22.3192852 L116,21.5432975 C116,18.004794 114.158327,15.8630681 111.109,15.8630681 C108.019418,15.8630681 106.05698,18.149645 106.05698,21.7502276 C106.05698,25.3508101 107.979163,27.5649615 111.119064,27.5649615 C113.624947,27.5649615 115.376045,26.3233813 115.869171,24.3058135 L113.785967,24.3058135 Z" id="App-Store"></path>
                            <path d="M33.0218978,0.358469055 L33.0218978,7.64397394 L35.5275164,7.64397394 C37.5954933,7.64397394 38.7929962,6.30602606 38.7929962,3.97850163 C38.7929962,1.68631922 37.5858748,0.358469055 35.5275164,0.358469055 L33.0218978,0.358469055 Z M34.0991695,1.38843648 L35.4072851,1.38843648 C36.8452505,1.38843648 37.6964875,2.34771987 37.6964875,3.99364821 C37.6964875,5.66482085 36.8596782,6.61400651 35.4072851,6.61400651 L34.0991695,6.61400651 L34.0991695,1.38843648 Z M42.583646,6.78566775 C41.6843165,6.78566775 41.1793454,6.09397394 41.1793454,4.89234528 C41.1793454,3.70081433 41.6843165,3.00407166 42.583646,3.00407166 C43.4781663,3.00407166 43.9879466,3.70081433 43.9879466,4.89234528 C43.9879466,6.08892508 43.4781663,6.78566775 42.583646,6.78566775 L42.583646,6.78566775 Z M42.583646,7.75 C44.1129871,7.75 45.0507906,6.67459283 45.0507906,4.89234528 C45.0507906,3.12019544 44.1081778,2.03973941 42.583646,2.03973941 C41.0543049,2.03973941 40.1116922,3.12019544 40.1116922,4.89234528 C40.1116922,6.67459283 41.0494957,7.75 42.583646,7.75 L42.583646,7.75 Z M53.1553364,2.14576547 L52.121348,2.14576547 L51.1883537,6.34136808 L51.1065965,6.34136808 L50.0293248,2.14576547 L49.0386196,2.14576547 L47.9613479,6.34136808 L47.8843999,6.34136808 L46.9465964,2.14576547 L45.8981802,2.14576547 L47.3409548,7.64397394 L48.4037987,7.64397394 L49.4810704,3.59478827 L49.5628277,3.59478827 L50.6449086,7.64397394 L51.7173711,7.64397394 L53.1553364,2.14576547 Z M54.4692232,7.64397394 L55.5032116,7.64397394 L55.5032116,4.42785016 C55.5032116,3.56954397 56.012992,3.03436482 56.844992,3.03436482 C57.6144718,3.03436482 57.9895932,3.47361564 57.9895932,4.35716612 L57.9895932,7.64397394 L59.0235816,7.64397394 L59.0235816,4.08452769 C59.0235816,2.77687296 58.3647146,2.03973941 57.1960672,2.03973941 C56.4073504,2.03973941 55.7965758,2.40830619 55.5416856,3.01921824 L55.4647376,3.01921824 L55.4647376,2.14576547 L54.4692232,2.14576547 L54.4692232,7.64397394 Z M60.7703008,7.64397394 L61.8042892,7.64397394 L61.8042892,0 L60.7703008,0 L60.7703008,7.64397394 Z M65.8113552,6.78566775 C64.9120257,6.78566775 64.4070546,6.09397394 64.4070546,4.89234528 C64.4070546,3.70081433 64.9120257,3.00407166 65.8113552,3.00407166 C66.7058755,3.00407166 67.2156558,3.70081433 67.2156558,4.89234528 C67.2156558,6.08892508 66.7058755,6.78566775 65.8113552,6.78566775 L65.8113552,6.78566775 Z M65.8113552,7.75 C67.3406963,7.75 68.2784998,6.67459283 68.2784998,4.89234528 C68.2784998,3.12019544 67.335887,2.03973941 65.8113552,2.03973941 C64.2820141,2.03973941 63.3394014,3.12019544 63.3394014,4.89234528 C63.3394014,6.67459283 64.2772049,7.75 65.8113552,7.75 L65.8113552,7.75 Z M71.477612,6.82100977 C70.9149299,6.82100977 70.5061438,6.53322476 70.5061438,6.03843648 C70.5061438,5.55374593 70.8331727,5.29625407 71.55456,5.24576547 L72.8338201,5.15993485 L72.8338201,5.61938111 C72.8338201,6.3009772 72.2567103,6.82100977 71.477612,6.82100977 L71.477612,6.82100977 Z M71.2131033,7.73485342 C71.9008259,7.73485342 72.4731265,7.4218241 72.7857276,6.87149837 L72.8674849,6.87149837 L72.8674849,7.64397394 L73.8629993,7.64397394 L73.8629993,3.88762215 C73.8629993,2.72638436 73.122375,2.03973941 71.8094501,2.03973941 C70.6215657,2.03973941 69.775138,2.64560261 69.6693345,3.58973941 L70.6696582,3.58973941 C70.7850802,3.2009772 71.1842478,2.97882736 71.7613577,2.97882736 C72.4683172,2.97882736 72.8338201,3.30700326 72.8338201,3.88762215 L72.8338201,4.36221498 L71.4150918,4.4480456 C70.1694964,4.52882736 69.467346,5.09934853 69.467346,6.08892508 C69.467346,7.09364821 70.2031611,7.73485342 71.2131033,7.73485342 L71.2131033,7.73485342 Z M77.4949439,7.73485342 C78.2163312,7.73485342 78.8271058,7.37638436 79.139707,6.77557003 L79.2214642,6.77557003 L79.2214642,7.64397394 L80.2121694,7.64397394 L80.2121694,0 L79.178181,0 L79.178181,3.01921824 L79.101233,3.01921824 C78.8174873,2.41335505 78.211522,2.05488599 77.4949439,2.05488599 C76.1724005,2.05488599 75.3211635,3.15553746 75.3211635,4.89234528 C75.3211635,6.63420195 76.162782,7.73485342 77.4949439,7.73485342 L77.4949439,7.73485342 Z M77.7883081,3.02931596 C78.6539728,3.02931596 79.1974179,3.75130293 79.1974179,4.89739414 C79.1974179,6.0485342 78.6587821,6.76042345 77.7883081,6.76042345 C76.9130248,6.76042345 76.3888167,6.05863192 76.3888167,4.89234528 C76.3888167,3.73615635 76.9178341,3.02931596 77.7883081,3.02931596 L77.7883081,3.02931596 Z M87.1586482,6.78566775 C86.2593187,6.78566775 85.7543476,6.09397394 85.7543476,4.89234528 C85.7543476,3.70081433 86.2593187,3.00407166 87.1586482,3.00407166 C88.0531684,3.00407166 88.5629488,3.70081433 88.5629488,4.89234528 C88.5629488,6.08892508 88.0531684,6.78566775 87.1586482,6.78566775 L87.1586482,6.78566775 Z M87.1586482,7.75 C88.6879893,7.75 89.6257928,6.67459283 89.6257928,4.89234528 C89.6257928,3.12019544 88.68318,2.03973941 87.1586482,2.03973941 C85.6293071,2.03973941 84.6866944,3.12019544 84.6866944,4.89234528 C84.6866944,6.67459283 85.6244979,7.75 87.1586482,7.75 L87.1586482,7.75 Z M91.1128124,7.64397394 L92.1468009,7.64397394 L92.1468009,4.42785016 C92.1468009,3.56954397 92.6565813,3.03436482 93.4885813,3.03436482 C94.2580611,3.03436482 94.6331825,3.47361564 94.6331825,4.35716612 L94.6331825,7.64397394 L95.6671709,7.64397394 L95.6671709,4.08452769 C95.6671709,2.77687296 95.0083039,2.03973941 93.8396564,2.03973941 C93.0509397,2.03973941 92.4401651,2.40830619 92.1852749,3.01921824 L92.1083269,3.01921824 L92.1083269,2.14576547 L91.1128124,2.14576547 L91.1128124,7.64397394 Z M100.670713,0.81286645 L100.670713,2.17100977 L99.8098577,2.17100977 L99.8098577,3.08485342 L100.670713,3.08485342 L100.670713,6.18990228 C100.670713,7.25016287 101.127592,7.6742671 102.277002,7.6742671 C102.478991,7.6742671 102.666551,7.6490228 102.830066,7.61872964 L102.830066,6.71498371 C102.685788,6.73013029 102.604031,6.74022801 102.445326,6.74022801 C101.930736,6.74022801 101.704702,6.48778502 101.704702,5.91221498 L101.704702,3.08485342 L102.878158,3.08485342 L102.878158,2.17100977 L101.704702,2.17100977 L101.704702,0.81286645 L100.670713,0.81286645 Z M104.35075,7.64397394 L105.384739,7.64397394 L105.384739,4.43289902 C105.384739,3.59983713 105.908947,3.03941368 106.755375,3.03941368 C107.534473,3.03941368 107.924022,3.48371336 107.924022,4.36221498 L107.924022,7.64397394 L108.958011,7.64397394 L108.958011,4.09462541 C108.958011,2.78697068 108.284716,2.04478827 107.10645,2.04478827 C106.317733,2.04478827 105.711768,2.41335505 105.456878,3.02931596 L105.37512,3.02931596 L105.37512,0 L104.35075,0 L104.35075,7.64397394 Z M112.811181,2.96368078 C113.575851,2.96368078 114.076013,3.52410423 114.100059,4.38745928 L111.454972,4.38745928 C111.512683,3.52915309 112.04651,2.96368078 112.811181,2.96368078 L112.811181,2.96368078 Z M114.09525,6.15960912 C113.90288,6.58876221 113.474857,6.82605863 112.849655,6.82605863 C112.022464,6.82605863 111.488637,6.21514658 111.454972,5.25081433 L111.454972,5.19022801 L115.153285,5.19022801 L115.153285,4.81156352 C115.153285,3.08485342 114.273192,2.03973941 112.81599,2.03973941 C111.33955,2.03973941 110.401747,3.15553746 110.401747,4.91254072 C110.401747,6.66954397 111.320313,7.75 112.820799,7.75 C114.018302,7.75 114.855111,7.14413681 115.090764,6.15960912 L114.09525,6.15960912 Z" id="Download-on-the"></path>
                            <path d="M19.0518273,15.9253694 C19.0201161,12.3467333 21.9375529,10.6057152 22.070959,10.5246602 C20.4186924,8.07857413 17.857734,7.74436083 16.95779,7.71771259 C14.8068911,7.48787155 12.7205082,9.02458653 11.6248291,9.02458653 C10.5072802,9.02458653 8.82002196,7.73991946 7.00154464,7.77767113 C4.66147159,7.81431245 2.47230045,9.19002766 1.27164615,11.326328 C-1.2062069,15.6822043 0.64179471,22.0833328 3.01576601,25.604231 C4.20329841,27.3297043 5.59093986,29.2539291 7.4072302,29.1861981 C9.18415483,29.1129155 9.84790452,28.0358826 11.9922425,28.0358826 C14.1168976,28.0358826 14.7401881,29.1861981 16.5925637,29.1417844 C18.4996138,29.1129155 19.7002681,27.4107594 20.8462478,25.6697413 C22.2185804,23.6955511 22.7697004,21.7468988 22.7915702,21.6469679 C22.7478306,21.6325334 19.0890061,20.2146252 19.0518273,15.9253694" id="Fill-2"></path>
                            <path d="M15.5526527,5.4015367 C16.5083648,4.1879316 17.162273,2.53685128 16.9807533,0.861343404 C15.5974859,0.923522622 13.8675814,1.83289369 12.8714101,3.01985056 C11.9900555,4.06579385 11.2027412,5.78016373 11.4061307,7.39238204 C12.959983,7.51007842 14.5553879,6.59626597 15.5526527,5.4015367" id="Fill-3"></path>
                        </g>
                    </g>
                </g>
            </g>
        </g>
    </g>
</svg>