<?xml version="1.0" encoding="UTF-8"?>
<svg width="24px" height="24px" viewBox="0 0 24 24" version="1.1" xmlns="http://www.w3.org/2000/svg" xmlns:xlink="http://www.w3.org/1999/xlink">
    <!-- Generator: Sketch 52.6 (67491) - http://www.bohemiancoding.com/sketch -->
    <title>icons/servicesB2C/archive</title>
    <desc>Created with Sketch.</desc>
    <g id="icons/servicesB2C/archive" stroke="none" stroke-width="1" fill="none" fill-rule="evenodd">
        <path d="M17.3333334,10.3333334 L7.33333334,10.3333334 L7.33333334,17.0000001 L17.3333334,17.0000001 L17.3333334,10.3333334 Z M19.3333334,10.3333334 L19.3333334,18.0000001 C19.3333334,18.5522848 18.8856182,19.0000001 18.3333334,19.0000001 L6.33333334,19.0000001 C5.78104859,19.0000001 5.33333334,18.5522848 5.33333334,18.0000001 L5.33333334,10.3333334 L5,10.3333334 C4.44771525,10.3333334 4,9.8856181 4,9.33333335 L4,6 C4,5.44771525 4.44771525,5 5,5 L19.6666668,5 C20.2189515,5 20.6666668,5.44771525 20.6666668,6 L20.6666668,9.33333335 C20.6666668,9.8856181 20.2189515,10.3333334 19.6666668,10.3333334 L19.3333334,10.3333334 Z M6,8.33333335 L18.6666668,8.33333335 L18.6666668,7 L6,7 L6,8.33333335 Z M11,13 C10.4477153,13 10,12.5522848 10,12 C10,11.4477153 10.4477153,11 11,11 L13.6666667,11 C14.2189515,11 14.6666667,11.4477153 14.6666667,12 C14.6666667,12.5522848 14.2189515,13 13.6666667,13 L11,13 Z" id="Combined-Shape" fill="#36B44E" fill-rule="nonzero"></path>
    </g>
</svg>