<?xml version="1.0" encoding="UTF-8"?>
<svg width="30px" height="29px" viewBox="0 0 30 29" version="1.1" xmlns="http://www.w3.org/2000/svg" xmlns:xlink="http://www.w3.org/1999/xlink">
    <!-- Generator: Sketch 53 (72520) - https://sketchapp.com -->
    <title>Cart 2</title>
    <desc>Created with Sketch.</desc>
    <g id="UI" stroke="none" stroke-width="1" fill="none" fill-rule="evenodd">
        <g id="Search-result" transform="translate(-175.000000, -373.000000)">
            <g id="Cart-2" transform="translate(172.000000, 370.000000)">
                <polygon id="Path" points="0 0 36 0 36 36 0 36"></polygon>
                <path d="M18,6.843075 L11.65233,14.46027 C11.121984,15.0966855 10.1761365,15.1826715 9.539715,14.6523255 C8.9032995,14.1219795 8.8173135,13.176132 9.3476595,12.5397105 L16.8476595,3.5397105 C17.447352,2.8200795 18.5526345,2.8200795 19.1523195,3.5397105 L26.6523195,12.5397105 C27.1826655,13.176126 27.0966795,14.1219705 26.460264,14.6523255 C25.8238485,15.1826715 24.878004,15.0966855 24.347649,14.46027 L17.999979,6.843075 L18,6.843075 Z" id="Path" fill="#36B44E" fill-rule="nonzero" opacity="0.3"></path>
                <path d="M4.92117,13.5 L31.07877,13.5 C31.9071975,13.5 32.57877,14.1715725 32.57877,15 C32.57877,15.1226427 32.5637289,15.2448225 32.5339837,15.363804 L29.3520788,28.091409 C28.8512663,30.094659 27.0513488,31.499994 24.9864337,31.499994 L11.0134237,31.499994 C8.94852375,31.499994 7.14859875,30.094656 6.64777875,28.091409 L3.46587375,15.363804 C3.26495025,14.5601115 3.75359175,13.745709 4.55728425,13.544784 C4.67626515,13.5150387 4.79844525,13.4999977 4.92108825,13.4999977 L4.92117,13.5 Z M18,18 C17.1715725,18 16.5,18.6715725 16.5,19.5 L16.5,25.5 C16.5,26.3284275 17.1715725,27 18,27 C18.8284275,27 19.5,26.3284275 19.5,25.5 L19.5,19.5 C19.5,18.6715725 18.8284275,18 18,18 Z M10.44708,18.2044455 C9.646881,18.4188585 9.1720065,19.241364 9.3864195,20.0415555 L10.9393395,25.8371055 C11.1537525,26.6373045 11.976258,27.112179 12.7764495,26.897766 C13.5766485,26.683353 14.051523,25.8608475 13.83711,25.060656 L12.28419,19.265106 C12.069777,18.464907 11.2472715,17.9900325 10.44708,18.2044455 L10.44708,18.2044455 Z M25.55298,18.2044455 C24.752781,17.9900325 23.93028,18.464907 23.71587,19.265106 L22.16295,25.060656 C21.948537,25.860855 22.4234115,26.683356 23.2236105,26.897766 C24.0238095,27.112179 24.8463105,26.6373045 25.0607205,25.8371055 L26.6136405,20.0415555 C26.8280535,19.2413565 26.353179,18.4188555 25.55298,18.2044455 Z" id="Shape" fill="#36B44E"></path>
            </g>
        </g>
    </g>
</svg>