<?xml version="1.0" encoding="UTF-8"?>
<svg width="192px" height="192px" viewBox="0 0 192 192" version="1.1" xmlns="http://www.w3.org/2000/svg" xmlns:xlink="http://www.w3.org/1999/xlink">
    <!-- Generator: Sketch 52.6 (67491) - http://www.bohemiancoding.com/sketch -->
    <title>checked</title>
    <desc>Created with Sketch.</desc>
    <g id="UI" stroke="none" stroke-width="1" fill="none" fill-rule="evenodd">
        <g id="CSR---new-case.---active" transform="translate(-623.000000, -280.000000)">
            <g id="Group-2" transform="translate(509.000000, 280.000000)">
                <g id="checked" transform="translate(114.000000, 0.000000)">
                    <path d="M170.733895,173.795368 C141.391158,197.748632 49.7701053,197.748632 21.0261053,173.795368 C-8.31663158,149.842105 -5.32252632,47.4421053 21.0261053,20.4947368 C47.3747368,-6.45263158 144.385263,-6.45263158 170.733895,20.4947368 C197.082526,47.4421053 200.076632,149.842526 170.733895,173.795368 Z" id="Path" fill="#30A747"></path>
                    <g id="Group" fill="#36B44E">
                        <path d="M96.4791579,131.877474 C70.1305263,152.836632 40.7877895,163.615579 13.2416842,164.214316 C-7.11873684,129.482105 -2.92673684,45.0471579 21.0265263,20.4951579 C42.5844211,-1.66147368 110.252211,-5.85347368 149.176421,7.91957895 C158.757474,47.4425263 138.996211,97.744 96.4791579,131.877474 Z" id="Path"></path>
                    </g>
                    <path d="M86.3553916,133.138686 C83.4199799,133.138686 80.484863,131.886272 78.807527,129.381739 L55.3254125,99.3261582 C51.9707405,95.1518373 52.8095559,89.3077293 57.0027485,85.9681551 C61.1959411,82.628581 67.0664697,83.4636213 70.4211418,87.6379422 L86.3553916,108.092467 L121.578858,62.5917231 C124.93353,58.4174022 130.804059,57.5823619 134.997252,60.921936 C139.190444,64.2615102 140.02926,70.1056182 136.674588,74.2799391 L93.9032563,129.381739 C91.80666,131.468899 89.2908034,133.138686 86.3553916,133.138686 Z" id="Path" fill="#FFFFFF"></path>
                </g>
            </g>
        </g>
    </g>
</svg>