<?xml version="1.0" encoding="UTF-8"?>
<svg width="24px" height="24px" viewBox="0 0 24 24" version="1.1" xmlns="http://www.w3.org/2000/svg" xmlns:xlink="http://www.w3.org/1999/xlink">
    <!-- Generator: Sketch 52.6 (67491) - http://www.bohemiancoding.com/sketch -->
    <title>icons/servicesB2C/delivery</title>
    <desc>Created with Sketch.</desc>
    <g id="icons/servicesB2C/delivery" stroke="none" stroke-width="1" fill="none" fill-rule="evenodd">
        <path d="M15.7909562,10.5558892 C15.7845083,10.5592009 15.7780265,10.5624418 15.7715121,10.5656113 L13,11.9513673 L13,17.7186333 L17.4816668,15.4778027 C17.5949431,15.4215144 17.6665997,15.30596 17.6666667,15.18 L17.6666668,9.6180339 L15.7909595,10.5558876 Z M8.66999794,7.45303293 L7.57273186,8.00166527 L12,10.2152993 L13.0972654,9.66666665 L8.66999794,7.45303293 Z M10.9060673,6.33499966 L15.3333334,8.54863266 L16.4272654,8.00166664 L12.1475941,5.86183097 C12.0543159,5.81576665 11.944865,5.81588582 11.8538803,5.86109381 L10.9060673,6.33499966 Z M8.1502901,5.47682253 C8.19505373,5.44989296 8.24177409,5.42655963 8.28996846,5.40698344 L10.9616667,4.07113605 C11.6157381,3.74612004 12.3842619,3.74612004 13.0383333,4.07113605 L18.3716666,6.73780267 C19.1646005,7.13182101 19.6661967,7.94070137 19.6666667,8.82666665 L19.6666666,15.1805307 C19.6661967,16.0659653 19.1646005,16.8748457 18.3738803,17.2677606 L13.0408333,19.934284 C12.3835707,20.2631784 11.6097626,20.2631784 10.9527864,19.9344272 L5.61669085,17.2663741 C4.82451532,16.8672212 4.32718428,16.0534068 4.33333329,15.1733334 L4.33333343,8.82613601 C4.33380328,7.94070137 4.83539948,7.13182101 5.6261197,6.73890612 L8.15029009,5.47682254 Z M11,17.7219661 L11,11.9513673 L6.33333028,9.61803246 L6.33330908,15.1802926 C6.33242719,15.3070116 6.40347448,15.4232708 6.51388023,15.4789062 L11,17.7219661 Z" id="Combined-Shape" fill="#36B44E" fill-rule="nonzero"></path>
    </g>
</svg>