<?xml version="1.0" encoding="UTF-8"?>
<svg width="46px" height="46px" viewBox="0 0 46 46" version="1.1" xmlns="http://www.w3.org/2000/svg" xmlns:xlink="http://www.w3.org/1999/xlink">
    <!-- Generator: Sketch 52.6 (67491) - http://www.bohemiancoding.com/sketch -->
    <title>fb</title>
    <desc>Created with Sketch.</desc>
    <defs>
        <circle id="path-1" cx="19" cy="19" r="19"></circle>
        <filter x="-18.4%" y="-13.2%" width="136.8%" height="136.8%" filterUnits="objectBoundingBox" id="filter-2">
            <feOffset dx="0" dy="2" in="SourceAlpha" result="shadowOffsetOuter1"></feOffset>
            <feGaussianBlur stdDeviation="2" in="shadowOffsetOuter1" result="shadowBlurOuter1"></feGaussianBlur>
            <feColorMatrix values="0 0 0 0 0.00784313725   0 0 0 0 0.101960784   0 0 0 0 0.207843137  0 0 0 0.15 0" type="matrix" in="shadowBlurOuter1"></feColorMatrix>
        </filter>
    </defs>
    <g id="Symbols" stroke="none" stroke-width="1" fill="none" fill-rule="evenodd">
        <g id="footer" transform="translate(-229.000000, -277.000000)">
            <g id="Group-3" transform="translate(233.000000, 279.000000)">
                <g id="fb">
                    <g id="Oval">
                        <use fill="black" fill-opacity="1" filter="url(#filter-2)" xlink:href="#path-1"></use>
                        <use fill="#FFFFFF" fill-rule="evenodd" xlink:href="#path-1"></use>
                    </g>
                    <g id="icons/social/facebook" fill="#1A77E4">
                        <g id="Group" transform="translate(14.000000, 10.000000)">
                            <g id="Capa_1">
                                <path d="M10.1205258,0.00391752577 L7.67892784,0 C4.93587629,0 3.16319588,1.81871134 3.16319588,4.63364948 L3.16319588,6.77007216 L0.708278351,6.77007216 C0.49614433,6.77007216 0.324360825,6.94205155 0.324360825,7.15418557 L0.324360825,10.2496186 C0.324360825,10.4617526 0.496340206,10.6335361 0.708278351,10.6335361 L3.16319588,10.6335361 L3.16319588,18.444299 C3.16319588,18.656433 3.33497938,18.8282165 3.5471134,18.8282165 L6.75008247,18.8282165 C6.96221649,18.8282165 7.134,18.6562371 7.134,18.444299 L7.134,10.6335361 L10.0043711,10.6335361 C10.2165052,10.6335361 10.3882887,10.4617526 10.3882887,10.2496186 L10.3894639,7.15418557 C10.3894639,7.0523299 10.3489175,6.95478351 10.2770309,6.88270103 C10.2051443,6.81061856 10.1072062,6.77007216 10.0053505,6.77007216 L7.134,6.77007216 L7.134,4.959 C7.134,4.08852577 7.34143299,3.64662887 8.47536082,3.64662887 L10.120134,3.64604124 C10.3320722,3.64604124 10.5038557,3.47406186 10.5038557,3.26212371 L10.5038557,0.387835052 C10.5038557,0.176092784 10.332268,0.00430927835 10.1205258,0.00391752577 Z" id="Path"></path>
                            </g>
                        </g>
                    </g>
                </g>
            </g>
        </g>
    </g>
</svg>