<?xml version="1.0" encoding="UTF-8"?>
<svg width="124px" height="30px" viewBox="0 0 124 30" version="1.1" xmlns="http://www.w3.org/2000/svg" xmlns:xlink="http://www.w3.org/1999/xlink">
    <!-- Generator: Sketch 52.6 (67491) - http://www.bohemiancoding.com/sketch -->
    <title>Group 4</title>
    <desc>Created with Sketch.</desc>
    <defs>
        <linearGradient x1="50%" y1="0%" x2="50%" y2="38.9125982%" id="linearGradient-1">
            <stop stop-color="#FBDA09" offset="0%"></stop>
            <stop stop-color="#FFBC00" offset="100%"></stop>
        </linearGradient>
        <path d="M8.97124809,3.9478072 C10.4385226,1.37827351 12.8151519,1.37419796 14.2847963,3.9478072 L23.7841486,20.5828653 C25.2514657,23.152399 24.0416749,25.2354176 21.0931586,25.2354176 L2.16323886,25.2354176 C-0.790271026,25.2354176 -1.9974301,23.1564745 -0.527828326,20.5828653 L8.97124809,3.9478072 Z" id="path-2"></path>
        <linearGradient x1="0%" y1="58.4755255%" x2="69.3064856%" y2="39.0830098%" id="linearGradient-4">
            <stop stop-color="#01E2FF" offset="0%"></stop>
            <stop stop-color="#01C4FF" offset="100%"></stop>
        </linearGradient>
        <linearGradient x1="20.2810876%" y1="20.1019903%" x2="83.820166%" y2="83.6214476%" id="linearGradient-5">
            <stop stop-color="#28D781" offset="0%"></stop>
            <stop stop-color="#02F076" offset="100%"></stop>
        </linearGradient>
        <linearGradient x1="74.4881466%" y1="17.4301299%" x2="10.1079427%" y2="91.1838038%" id="linearGradient-6">
            <stop stop-color="#F2414E" offset="0%"></stop>
            <stop stop-color="#E02554" offset="100%"></stop>
        </linearGradient>
    </defs>
    <g id="UI" stroke="none" stroke-width="1" fill="none" fill-rule="evenodd">
        <g id="Home" transform="translate(-1158.000000, -552.000000)">
            <g id="ATF_CONTENT" transform="translate(735.000000, 343.000000)">
                <g id="appStoreBadges" transform="translate(198.000000, 199.000000)">
                    <g id="Playstore" transform="translate(202.000000, 0.000000)">
                        <g id="Group-4" transform="translate(23.000000, 10.000000)">
                            <g id="get-it-on" transform="translate(33.123288, 0.000000)" fill="#FFFFFF">
                                <path d="M32.0572101,6.85714286 C30.1374224,6.85714286 28.581127,5.32211914 28.581127,3.42857143 C28.581127,1.53502371 30.1374224,0 32.0572101,0 C33.9769977,0 35.5332931,1.53502371 35.5332931,3.42857143 C35.5332931,5.32211914 33.9769977,6.85714286 32.0572101,6.85714286 Z M32.0572101,5.80952381 C33.3903959,5.80952381 34.4711566,4.74353512 34.4711566,3.42857143 C34.4711566,2.11360774 33.3903959,1.04761905 32.0572101,1.04761905 C30.7240242,1.04761905 29.6432635,2.11360774 29.6432635,3.42857143 C29.6432635,4.74353512 30.7240242,5.80952381 32.0572101,5.80952381 Z" id="o"></path>
                                <path d="M8.49709182,3.80952381 L8.49709182,5.9047619 L11.2972698,5.9047619 L11.2972698,6.66666667 L8.49709182,6.66666667 L7.43495534,6.66666667 L7.43495534,0.380952381 L7.43495534,0.285714286 L11.2972698,0.285714286 L11.2972698,1.04761905 L8.49709182,1.04761905 L8.49709182,3.04761905 L11.0075962,3.04761905 L11.0075962,3.80952381 L8.49709182,3.80952381 Z" id="e"></path>
                                <path d="M15.0630264,1.04761905 L15.0630264,6.66666667 L14.0008899,6.66666667 L14.0008899,1.04761905 L12.3594063,1.04761905 L12.3594063,0.285714286 L16.7045101,0.285714286 L16.7045101,1.04761905 L15.0630264,1.04761905 Z" id="t"></path>
                                <path d="M24.5256969,1.04761905 L24.5256969,6.66666667 L23.4635604,6.66666667 L23.4635604,1.04761905 L21.8220767,1.04761905 L21.8220767,0.285714286 L26.1671805,0.285714286 L26.1671805,1.04761905 L24.5256969,1.04761905 Z" id="t"></path>
                                <rect id="i" x="19.7943616" y="0.285714286" width="1.06213648" height="6.38095238"></rect>
                                <path d="M37.4644503,0.285714286 L37.657566,0.285714286 L40.5543019,4.95470383 L40.5543019,0.285714286 L41.6164384,0.285714286 L41.6164384,6.66666667 L40.5543019,6.66666667 L37.4644503,1.68641115 L37.4644503,6.66666667 L36.4023138,6.66666667 L36.4023138,0.285714286 L37.4644503,0.285714286 Z" id="n"></path>
                                <g id="g" transform="translate(0.000000, 0.095238)">
                                    <polygon id="Rectangle-1" points="3.45515524 3.06382012 6.36324424 3.06382012 6.33445128 3.97161868 3.45515524 3.97161868"></polygon>
                                    <path d="M5.79097887,0.927859878 L5.12552667,1.58350684 C4.71046416,1.16538556 4.12095162,0.93616726 3.44075876,0.93616726 C2.08114521,0.93616726 0.978960652,2.02211146 0.978960652,3.36169152 C0.978960652,4.70127158 2.08114521,5.78721579 3.44075876,5.78721579 C4.80037231,5.78721579 5.76567784,5.01278339 5.76365333,3.36169152 C5.76595286,3.25965512 5.7635412,3.16033152 5.75662492,3.06382012 L6.60609643,3.06382012 C6.6061928,3.07504509 6.60624108,3.08629289 6.60624108,3.09756337 C6.92577545,5.40928037 5.32782239,6.74039319 3.4119658,6.72338305 C1.52759094,6.7207209 0,5.21830249 0,3.36169152 C0,1.50508056 1.52758912,0 3.4119658,0 C4.39693861,0 5.22495231,0.339053447 5.79097887,0.927859878 Z" id="Oval-1"></path>
                                </g>
                            </g>
                            <g id="googleplay" transform="translate(33.123288, 11.142857)" fill="#FFFFFF">
                                <g id="big-P" transform="translate(60.455297, 0.496241)">
                                    <path d="M0.484417443,3.4882159e-07 L5.97702275,0 C5.97702275,0 9.13896422,0.551098449 9.13896398,4.27062663 C9.13896373,7.99015482 5.97702275,8.54125327 5.97702275,8.54125327 L0.484417443,8.54125362 L0.484417443,3.4882159e-07 Z M1.55013582,2.06603946 L1.55013582,6.64962406 L5.27878466,6.64962406 C5.27878466,6.64962406 6.97561118,6.64962406 6.97561118,4.35783176 C6.97561118,2.06603946 5.27878466,2.06603946 5.27878466,2.06603946 L1.55013582,2.06603946 Z" id="Combined-Shape"></path>
                                    <rect id="Rectangle-6" x="0" y="0" width="1.93766977" height="13.8947368"></rect>
                                </g>
                                <rect id="y" x="70.7249467" y="0.496240602" width="1.93766977" height="13.8947368"></rect>
                                <path d="M79.8443976,13.397517 C79.310695,13.8486083 78.4574385,14.2731601 77.1098043,14.3593809 C74.0224475,14.5569081 74.0208389,11.6708615 74.0208389,11.4762424 C74.0208389,11.2816232 73.8685596,8.9280178 76.3244709,8.55389891 C78.0634978,8.28898592 79.2815003,8.73038188 79.8443976,9.01064259 L79.8443976,8.60239082 C79.7063597,8.06170413 79.277994,7.06823015 77.9937715,7.06823015 C76.2294409,7.06823015 75.8398169,8.04539767 75.8398169,8.04539767 L74.2258175,7.06823015 C74.2258175,7.06823015 75.1289824,5.16090225 77.838985,5.16090226 C81.2086104,5.16090226 81.7822684,7.54180312 81.7822684,8.34368722 C81.7822684,8.34759041 81.7822011,8.35146836 81.7820673,8.35532123 L81.7820673,14.386519 L79.8443976,14.386519 L79.8443976,13.397517 Z M79.7059791,10.4213434 C79.7059791,10.4213434 75.9730317,9.39062654 75.8432703,11.5389024 C75.7135089,13.6871783 79.4245061,12.6556376 79.7560765,11.1327508 C79.7560765,10.6484801 79.7059791,10.4213434 79.7059791,10.4213434 Z" id="a"></path>
                                <path d="M85.4179727,13.8638132 L81.9634314,5.45864662 L83.9011011,5.45864662 L86.3868075,11.5065628 L88.8527557,5.50671992 L90.7904255,5.50671992 L85.5481205,18.2616541 L83.6104507,18.2616541 L85.4179727,13.8638132 Z" id="y"></path>
                                <path d="M56.1173723,8.70660647 L49.9891075,11.3011005 C49.9891075,11.3011005 50.3848934,12.7361111 52.2274003,12.7457292 C53.6701518,12.7532604 54.4845933,11.4357239 54.4845933,11.4357239 L56.0394163,12.514396 C56.0394163,12.514396 54.7847594,14.5930845 52.2151534,14.5930845 C49.057462,14.5930845 47.6666764,11.7645492 47.6666764,9.92760503 C47.6666764,8.15775675 48.7706025,5.16090226 52.0192034,5.16090226 C55.2678044,5.16090226 56.1173723,8.70660647 56.1173723,8.70660647 Z M53.7856972,7.9716242 C53.7856972,7.9716242 53.0146764,6.76990365 51.8322031,6.99152747 C49.330897,7.46033219 49.6456652,9.70265099 49.6456652,9.70265099 L53.7856972,7.9716242 Z" id="e"></path>
                                <rect id="i" x="44.7601717" y="0.496240602" width="2.04993819" height="13.8655462"></rect>
                                <path d="M41.4796867,5.46224563 L43.3746549,5.47901566 L43.3746549,14.2277503 C43.3746549,16.463028 42.0755442,18.822578 39.0171231,18.822578 C35.958702,18.822578 34.9709445,16.0466403 34.9709445,16.0466403 L36.7112959,15.2968537 C36.7112959,15.2968537 37.2420919,17.0076622 39.1075615,17.0076599 C41.231923,17.0076573 41.4799222,15.0277875 41.4799222,14.3500723 L41.4799222,13.4006319 C41.4799222,13.4006319 40.7448743,14.5791406 38.9191481,14.5791432 C36.9396883,14.579146 34.5874054,12.8417975 34.5874054,9.87996272 C34.5874054,6.91812798 36.802382,5.22399174 38.9420521,5.16236709 C40.6559081,5.11300631 41.4796867,6.32753511 41.4796867,6.32753511 L41.4796867,5.46224563 Z M39.0809481,12.8012961 C40.4628366,12.8012961 41.5830786,11.5045522 41.5830786,9.90493755 C41.5830786,8.3053229 40.4628366,7.00857901 39.0809481,7.00857901 C37.6990597,7.00857901 36.5788177,8.3053229 36.5788177,9.90493755 C36.5788177,11.5045522 37.6990597,12.8012961 39.0809481,12.8012961 Z" id="g"></path>
                                <path d="M29.1238836,14.5894737 C26.576547,14.5894737 24.5115226,12.4788161 24.5115226,9.87518797 C24.5115226,7.27155986 26.576547,5.16090226 29.1238836,5.16090226 C31.6712202,5.16090226 33.7362445,7.27155986 33.7362445,9.87518797 C33.7362445,12.4788161 31.6712202,14.5894737 29.1238836,14.5894737 Z M29.0937374,12.7407342 C30.5255737,12.7407342 31.6863063,11.4577854 31.6863063,9.87518797 C31.6863063,8.29259049 30.5255737,7.00964175 29.0937374,7.00964175 C27.6619011,7.00964175 26.5011685,8.29259049 26.5011685,9.87518797 C26.5011685,11.4577854 27.6619011,12.7407342 29.0937374,12.7407342 Z" id="o"></path>
                                <path d="M19.1448842,14.5894737 C16.5975476,14.5894737 14.5325233,12.4788161 14.5325233,9.87518797 C14.5325233,7.27155986 16.5975476,5.16090226 19.1448842,5.16090226 C21.6922208,5.16090226 23.7572452,7.27155986 23.7572452,9.87518797 C23.7572452,12.4788161 21.6922208,14.5894737 19.1448842,14.5894737 Z M19.1147381,12.7407342 C20.5465743,12.7407342 21.707307,11.4577854 21.707307,9.87518797 C21.707307,8.29259049 20.5465743,7.00964175 19.1147381,7.00964175 C17.6829018,7.00964175 16.5221692,8.29259049 16.5221692,9.87518797 C16.5221692,11.4577854 17.6829018,12.7407342 19.1147381,12.7407342 Z" id="o"></path>
                                <g id="big-g">
                                    <polygon id="Rectangle-1" points="7.23507597 6.65546218 13.3245983 6.65546218 13.264306 8.62745098 7.23507597 8.62745098"></polygon>
                                    <path d="M12.1262777,2.01556752 L10.7328245,3.43981352 C9.86368591,2.53153881 8.62924991,2.03361345 7.20492982,2.03361345 C4.35790656,2.03361345 2.04993819,4.39258371 2.04993819,7.30252101 C2.04993819,10.2124583 4.35790656,12.5714286 7.20492982,12.5714286 C10.0519531,12.5714286 12.0732975,10.8891478 12.0690582,7.30252101 C12.0738734,7.08086981 12.0688234,6.86511156 12.0543408,6.65546218 L13.8331294,6.65546218 C13.8333312,6.67984591 13.8334323,6.70427922 13.8334323,6.72876182 C14.5025355,11.7504486 11.1564306,14.6419927 7.14463752,14.605042 C3.19876698,14.5992591 0,11.335592 0,7.30252101 C0,3.26945002 3.19876318,0 7.14463752,0 C9.20716514,0 10.9410213,0.736517585 12.1262777,2.01556752 Z" id="Oval-1"></path>
                                </g>
                            </g>
                            <g id="logo_play">
                                <mask id="mask-3" fill="white">
                                    <use xlink:href="#path-2"></use>
                                </mask>
                                <use id="yellow" fill="url(#linearGradient-1)" transform="translate(11.627223, 13.627273) rotate(-270.000000) translate(-11.627223, -13.627273) " xlink:href="#path-2"></use>
                                <polygon id="blue" fill="url(#linearGradient-4)" mask="url(#mask-3)" points="-2.77555756e-17 -0.00952380993 13.4490981 13.4087798 -0.173715159 27.3574405"></polygon>
                                <polygon id="green" fill="url(#linearGradient-5)" mask="url(#mask-3)" points="-2.76563441 -2.771875 13.447502 13.4127046 18.2678564 8.79657739"></polygon>
                                <polygon id="red" fill="url(#linearGradient-6)" mask="url(#mask-3)" points="13.4497106 13.4096168 20.8291899 20.876237 -1.21630306 28.3428571"></polygon>
                            </g>
                        </g>
                    </g>
                </g>
            </g>
        </g>
    </g>
</svg>