<?xml version="1.0" encoding="UTF-8"?>
<svg width="46px" height="46px" viewBox="0 0 46 46" version="1.1" xmlns="http://www.w3.org/2000/svg" xmlns:xlink="http://www.w3.org/1999/xlink">
    <!-- Generator: Sketch 52.6 (67491) - http://www.bohemiancoding.com/sketch -->
    <title>instagram</title>
    <desc>Created with Sketch.</desc>
    <defs>
        <circle id="path-1" cx="19" cy="19" r="19"></circle>
        <filter x="-18.4%" y="-13.2%" width="136.8%" height="136.8%" filterUnits="objectBoundingBox" id="filter-2">
            <feOffset dx="0" dy="2" in="SourceAlpha" result="shadowOffsetOuter1"></feOffset>
            <feGaussianBlur stdDeviation="2" in="shadowOffsetOuter1" result="shadowBlurOuter1"></feGaussianBlur>
            <feColorMatrix values="0 0 0 0 0.00784313725   0 0 0 0 0.101960784   0 0 0 0 0.207843137  0 0 0 0.15 0" type="matrix" in="shadowBlurOuter1"></feColorMatrix>
        </filter>
        <linearGradient x1="50%" y1="0%" x2="115.895249%" y2="89.8681454%" id="linearGradient-3">
            <stop stop-color="#FAD961" offset="0%"></stop>
            <stop stop-color="#F76B1C" offset="100%"></stop>
        </linearGradient>
    </defs>
    <g id="Symbols" stroke="none" stroke-width="1" fill="none" fill-rule="evenodd">
        <g id="footer" transform="translate(-362.000000, -277.000000)">
            <g id="Group-3" transform="translate(233.000000, 279.000000)">
                <g id="instagram" transform="translate(133.000000, 0.000000)">
                    <g id="Oval">
                        <use fill="black" fill-opacity="1" filter="url(#filter-2)" xlink:href="#path-1"></use>
                        <use fill="#FFFFFF" fill-rule="evenodd" xlink:href="#path-1"></use>
                    </g>
                    <g id="icons/social/instagram" fill="url(#linearGradient-3)">
                        <g id="Group" transform="translate(10.000000, 10.000000)">
                            <g id="Capa_1">
                                <path d="M13.0625,0 L5.9375,0 C2.6588125,0 0,2.6588125 0,5.9375 L0,13.0625 C0,16.3411875 2.6588125,19 5.9375,19 L13.0625,19 C16.3411875,19 19,16.3411875 19,13.0625 L19,5.9375 C19,2.6588125 16.3411875,0 13.0625,0 Z M17.21875,13.0625 C17.21875,15.354375 15.354375,17.21875 13.0625,17.21875 L5.9375,17.21875 C3.645625,17.21875 1.78125,15.354375 1.78125,13.0625 L1.78125,5.9375 C1.78125,3.645625 3.645625,1.78125 5.9375,1.78125 L13.0625,1.78125 C15.354375,1.78125 17.21875,3.645625 17.21875,5.9375 L17.21875,13.0625 Z" id="Shape" fill-rule="nonzero"></path>
                                <path d="M9.5,4.75 C6.8768125,4.75 4.75,6.8768125 4.75,9.5 C4.75,12.1231875 6.8768125,14.25 9.5,14.25 C12.1231875,14.25 14.25,12.1231875 14.25,9.5 C14.25,6.8768125 12.1231875,4.75 9.5,4.75 Z M9.5,12.46875 C7.863625,12.46875 6.53125,11.136375 6.53125,9.5 C6.53125,7.8624375 7.863625,6.53125 9.5,6.53125 C11.136375,6.53125 12.46875,7.8624375 12.46875,9.5 C12.46875,11.136375 11.136375,12.46875 9.5,12.46875 Z" id="Shape" fill-rule="nonzero"></path>
                                <circle id="Oval" cx="14.60625" cy="4.39375" r="1"></circle>
                            </g>
                        </g>
                    </g>
                </g>
            </g>
        </g>
    </g>
</svg>