<?xml version="1.0" encoding="UTF-8"?>
<svg width="84px" height="84px" viewBox="0 0 84 84" version="1.1" xmlns="http://www.w3.org/2000/svg" xmlns:xlink="http://www.w3.org/1999/xlink">
    <!-- Generator: Sketch 52.6 (67491) - http://www.bohemiancoding.com/sketch -->
    <title>institue</title>
    <desc>Created with Sketch.</desc>
    <defs>
        <linearGradient x1="529.016031%" y1="-251.735852%" x2="-37.7626462%" y2="110.447861%" id="linearGradient-1">
            <stop stop-color="#36B44E" offset="0%"></stop>
            <stop stop-color="#FFFFFF" offset="100%"></stop>
        </linearGradient>
        <path d="M39.4433054,26.1348632 C39.492379,25.9880843 39.5202317,25.8306948 39.5202317,25.6671159 L39.5202317,8.48823161 C39.5202317,7.67387372 38.8597264,7.01381056 38.0453685,7.01381056 L29.8368001,7.01381056 L29.8368001,25.2988422 C29.8368001,25.5924001 29.7837474,25.8731369 29.6900211,26.1348632 L28.7271159,26.1348632 C28.7761895,25.9880843 28.8040422,25.8306948 28.8040422,25.6671159 L28.8040422,2.07328423 C28.8040422,1.25892633 28.1435369,0.598863174 27.329179,0.598863174 L14.4510948,0.598863174 C13.6367369,0.598863174 12.9766737,1.25892633 12.9766737,2.07328423 L12.9766737,25.6671159 C12.9766737,25.8306948 13.0045263,25.9880843 13.0536,26.1348632 L12.0911369,26.1348632 C11.9974106,25.8731369 11.9443579,25.5924001 11.9443579,25.2988422 L11.9443579,7.01381056 L3.93252633,7.01381056 C3.11816843,7.01381056 2.45810527,7.67387372 2.45810527,8.48823161 L2.45810527,25.6671159 C2.45810527,25.8306948 2.4859579,25.9880843 2.53458948,26.1348632 L0,26.1348632 L0,29.1827369 L41.781158,29.1827369 L41.781158,26.1348632 L39.4433054,26.1348632 Z M6.88136844,20.1125053 L4.76766317,20.1125053 L4.76766317,17.9992422 L6.88136844,17.9992422 L6.88136844,20.1125053 Z M6.88136844,16.4019158 L4.76766317,16.4019158 L4.76766317,14.2882106 L6.88136844,14.2882106 L6.88136844,16.4019158 Z M6.88136844,12.8137895 L4.76766317,12.8137895 L4.76766317,10.7000843 L6.88136844,10.7000843 L6.88136844,12.8137895 Z M10.1750527,20.1125053 L8.06134739,20.1125053 L8.06134739,17.9992422 L10.1750527,17.9992422 L10.1750527,20.1125053 Z M10.1750527,16.4019158 L8.06134739,16.4019158 L8.06134739,14.2882106 L10.1750527,14.2882106 L10.1750527,16.4019158 Z M10.1750527,12.8137895 L8.06134739,12.8137895 L8.06134739,10.7000843 L10.1750527,10.7000843 L10.1750527,12.8137895 Z M24.1716632,26.0362738 L17.9658316,26.0362738 L17.9658316,18.2941264 L24.1716632,18.2941264 L24.1716632,26.0362738 Z M34.309579,20.1125053 L32.1963159,20.1125053 L32.1963159,17.9992422 L34.309579,17.9992422 L34.309579,20.1125053 Z M34.309579,16.4019158 L32.1963159,16.4019158 L32.1963159,14.2882106 L34.309579,14.2882106 L34.309579,16.4019158 Z M34.309579,12.8137895 L32.1963159,12.8137895 L32.1963159,10.7000843 L34.309579,10.7000843 L34.309579,12.8137895 Z M37.6028211,20.1125053 L35.489558,20.1125053 L35.489558,17.9992422 L37.6028211,17.9992422 L37.6028211,20.1125053 Z M37.6028211,16.4019158 L35.489558,16.4019158 L35.489558,14.2882106 L37.6028211,14.2882106 L37.6028211,16.4019158 Z M37.6028211,12.8137895 L35.489558,12.8137895 L35.489558,10.7000843 L37.6028211,10.7000843 L37.6028211,12.8137895 Z M20.1132632,11.1137053 L18,11.1137053 L18,9.00000005 L20.1132632,9.00000005 L20.1132632,11.1137053 Z M20.1132632,7.71256844 L18,7.71256844 L18,5.59886317 L20.1132632,5.59886317 L20.1132632,7.71256844 Z M23.6028211,15.1132632 L21.489558,15.1132632 L21.489558,13.0000001 L23.6028211,13.0000001 L23.6028211,15.1132632 Z M20.1132632,15.1132632 L18,15.1132632 L18,13.0000001 L20.1132632,13.0000001 L20.1132632,15.1132632 Z M23.6028211,11.1137053 L21.489558,11.1137053 L21.489558,9.00000005 L23.6028211,9.00000005 L23.6028211,11.1137053 Z M23.6028211,7.81378952 L21.489558,7.81378952 L21.489558,5.70008425 L23.6028211,5.70008425 L23.6028211,7.81378952 Z" id="path-2"></path>
        <filter x="-16.8%" y="-17.5%" width="133.5%" height="149.0%" filterUnits="objectBoundingBox" id="filter-3">
            <feOffset dx="0" dy="2" in="SourceAlpha" result="shadowOffsetOuter1"></feOffset>
            <feGaussianBlur stdDeviation="2" in="shadowOffsetOuter1" result="shadowBlurOuter1"></feGaussianBlur>
            <feColorMatrix values="0 0 0 0 0.211764706   0 0 0 0 0.705882353   0 0 0 0 0.305882353  0 0 0 0.3 0" type="matrix" in="shadowBlurOuter1"></feColorMatrix>
        </filter>
    </defs>
    <g id="UI" stroke="none" stroke-width="1" fill="none" fill-rule="evenodd">
        <g id="Home" transform="translate(-1116.000000, -970.000000)">
            <g id="Group-6" transform="translate(1110.000000, 970.000000)">
                <g id="institue" transform="translate(6.000000, 0.000000)">
                    <circle id="Oval-Copy-3" fill="url(#linearGradient-1)" cx="42" cy="42" r="42"></circle>
                    <g id="icons/services/institute" transform="translate(17.000000, 17.000000)">
                        <g id="Group" transform="translate(4.000000, 10.000000)">
                            <g id="Capa_1" fill-rule="nonzero">
                                <g id="Shape">
                                    <use fill="black" fill-opacity="1" filter="url(#filter-3)" xlink:href="#path-2"></use>
                                    <use fill="#36B44E" xlink:href="#path-2"></use>
                                </g>
                            </g>
                        </g>
                    </g>
                </g>
            </g>
        </g>
    </g>
</svg>