<?xml version="1.0" encoding="UTF-8"?>
<svg width="84px" height="84px" viewBox="0 0 84 84" version="1.1" xmlns="http://www.w3.org/2000/svg" xmlns:xlink="http://www.w3.org/1999/xlink">
    <!-- Generator: Sketch 52.6 (67491) - http://www.bohemiancoding.com/sketch -->
    <title>insurance</title>
    <desc>Created with Sketch.</desc>
    <defs>
        <linearGradient x1="529.016031%" y1="-251.735852%" x2="-37.7626462%" y2="110.447861%" id="linearGradient-1">
            <stop stop-color="#36B44E" offset="0%"></stop>
            <stop stop-color="#FFFFFF" offset="100%"></stop>
        </linearGradient>
        <path d="M11.2262903,25.3850323 C16.9207742,31.9170001 16.4868387,32.9372904 16.4941936,40.9825162 C16.4944839,41.2887098 16.4573226,41.9298388 15.3894194,41.9298388 C13.3419678,41.9307098 11.8665484,41.9281936 11.140742,41.9291614 C10.4817097,41.9299356 10.3186452,41.5243549 10.2776129,40.9300646 C10.1903226,39.6672582 9.96512906,37.637613 9.40954841,37.2875807 C8.59248389,36.7726452 3.88858065,33.7617098 1.65996775,29.2087743 C-0.981096777,23.8132259 0.0530322582,14.5916129 1.83222581,13.4850968 C3.61141936,12.3784839 4.99964517,14.5687742 4.46129033,16.6643226 C3.36174194,20.944742 6.18425808,27.4290001 6.89409679,28.0659678 C7.6039355,28.702742 8.01512905,27.9630968 7.78577421,27.5629355 C6.86496776,25.9558065 5.04000001,20.9444517 5.3295484,19.243742 C5.51670969,18.144871 7.08590324,17.5365484 8.07503228,18.7926775 C9.25345163,20.2891936 9.49712905,23.4016452 11.2262903,25.3850323 Z M27.6069678,25.3850323 C29.3361291,23.4016452 29.5799033,20.2891936 30.7582259,18.7926775 C31.7473549,17.5365484 33.3165485,18.144871 33.5037098,19.243742 C33.7932581,20.9444517 31.9682904,25.9558065 31.0474839,27.5629355 C30.8181291,27.9630968 31.2293227,28.702742 31.9391614,28.0659678 C32.6490001,27.4290001 35.4715162,20.944742 34.3719678,16.6643226 C33.8337098,14.5687742 35.2218388,12.3784839 37.0010323,13.4850968 C38.7802259,14.5916129 39.8143549,23.8132259 37.1732904,29.2087743 C34.9446775,33.7617098 30.2407743,36.7726452 29.4237097,37.2875807 C28.8681291,37.637613 28.6429356,39.6672582 28.5556452,40.9300646 C28.514613,41.5243549 28.3515485,41.9299356 27.6925162,41.9291614 C26.9667097,41.9281936 25.4912904,41.9307098 23.4438388,41.9298388 C22.3759355,41.9298388 22.3387742,41.2887098 22.3390646,40.9825162 C22.3464194,32.9372904 21.9125807,31.9170001 27.6069678,25.3850323 Z M24.9597097,1.77635684e-15 C29.4133549,1.77635684e-15 33.0237098,3.61035485 33.0235162,8.06409679 C33.0235162,9.79277422 32.477613,11.3931291 31.5515807,12.7059678 C31.1825807,13.2830323 30.7392581,13.8079355 30.2342904,14.2664516 L21.8693226,22.6442904 C21.0314517,23.4822581 20.1936775,24.3199355 19.3559033,24.3199355 C19.3489355,24.3199355 19.341871,24.3187743 19.3349033,24.3185807 C19.3279355,24.3187743 19.320871,24.3199355 19.3139033,24.3199355 C18.4761291,24.3199355 17.6383549,23.4822581 16.8005807,22.6442904 L8.43551615,14.2664516 C7.93054841,13.8080323 7.48722582,13.2830323 7.11822582,12.7059678 C6.19209679,11.3931291 5.64629034,9.79287099 5.64629034,8.06409679 C5.64629034,3.61035485 9.25664518,1.77635684e-15 13.7102904,1.77635684e-15 C15.898742,1.77635684e-15 17.8821291,0.873290325 19.335,2.28851613 C20.7879678,0.873290325 22.7712581,1.77635684e-15 24.9597097,1.77635684e-15 Z" id="path-2"></path>
        <filter x="-18.1%" y="-11.9%" width="136.2%" height="133.4%" filterUnits="objectBoundingBox" id="filter-3">
            <feOffset dx="0" dy="2" in="SourceAlpha" result="shadowOffsetOuter1"></feOffset>
            <feGaussianBlur stdDeviation="2" in="shadowOffsetOuter1" result="shadowBlurOuter1"></feGaussianBlur>
            <feColorMatrix values="0 0 0 0 0.211764706   0 0 0 0 0.705882353   0 0 0 0 0.305882353  0 0 0 0.3 0" type="matrix" in="shadowBlurOuter1"></feColorMatrix>
        </filter>
    </defs>
    <g id="UI" stroke="none" stroke-width="1" fill="none" fill-rule="evenodd">
        <g id="Home" transform="translate(-871.000000, -990.000000)">
            <g id="Group-6" transform="translate(853.000000, 990.000000)">
                <g id="insurance" transform="translate(18.000000, 0.000000)">
                    <circle id="Oval-Copy-3" fill="url(#linearGradient-1)" cx="42" cy="42" r="42"></circle>
                    <g id="icons/services/insurance" transform="translate(17.000000, 17.000000)">
                        <g id="Group" transform="translate(5.000000, 4.000000)">
                            <g id="Capa_1" fill-rule="nonzero">
                                <g id="icons_1_" transform="translate(0.548387, 0.000000)">
                                    <g id="Group">
                                        <g id="Combined-Shape">
                                            <use fill="black" fill-opacity="1" filter="url(#filter-3)" xlink:href="#path-2"></use>
                                            <use fill="#36B44E" xlink:href="#path-2"></use>
                                        </g>
                                    </g>
                                </g>
                            </g>
                        </g>
                    </g>
                </g>
            </g>
        </g>
    </g>
</svg>