<?xml version="1.0" encoding="UTF-8"?>
<svg width="46px" height="46px" viewBox="0 0 46 46" version="1.1" xmlns="http://www.w3.org/2000/svg" xmlns:xlink="http://www.w3.org/1999/xlink">
    <!-- Generator: Sketch 52.6 (67491) - http://www.bohemiancoding.com/sketch -->
    <title>linkedin</title>
    <desc>Created with Sketch.</desc>
    <defs>
        <circle id="path-1" cx="19" cy="19" r="19"></circle>
        <filter x="-18.4%" y="-13.2%" width="136.8%" height="136.8%" filterUnits="objectBoundingBox" id="filter-2">
            <feOffset dx="0" dy="2" in="SourceAlpha" result="shadowOffsetOuter1"></feOffset>
            <feGaussianBlur stdDeviation="2" in="shadowOffsetOuter1" result="shadowBlurOuter1"></feGaussianBlur>
            <feColorMatrix values="0 0 0 0 0.00784313725   0 0 0 0 0.101960784   0 0 0 0 0.207843137  0 0 0 0.15 0" type="matrix" in="shadowBlurOuter1"></feColorMatrix>
        </filter>
    </defs>
    <g id="Symbols" stroke="none" stroke-width="1" fill="none" fill-rule="evenodd">
        <g id="footer" transform="translate(-429.000000, -277.000000)">
            <g id="Group-3" transform="translate(233.000000, 279.000000)">
                <g id="linkedin" transform="translate(200.000000, 0.000000)">
                    <g id="Oval">
                        <use fill="black" fill-opacity="1" filter="url(#filter-2)" xlink:href="#path-1"></use>
                        <use fill="#FFFFFF" fill-rule="evenodd" xlink:href="#path-1"></use>
                    </g>
                    <g id="icons/social/linkedin" fill="#2392DE">
                        <g id="Group" transform="translate(10.000000, 10.000000)">
                            <g id="Capa_1">
                                <rect id="Rectangle" x="0" y="5.9375" width="4.248875" height="13.0625"></rect>
                                <path d="M15.82225,6.0906875 C15.777125,6.0764375 15.734375,6.061 15.686875,6.0479375 C15.629875,6.034875 15.572875,6.0241875 15.5146875,6.0146875 C15.2890625,5.9695625 15.0420625,5.9375 14.7523125,5.9375 C12.2751875,5.9375 10.704125,7.7389375 10.186375,8.4348125 L10.186375,5.9375 L5.9375,5.9375 L5.9375,19 L10.186375,19 L10.186375,11.875 C10.186375,11.875 13.397375,7.402875 14.7523125,10.6875 C14.7523125,13.6194375 14.7523125,19 14.7523125,19 L19,19 L19,10.1851875 C19,8.2115625 17.6474375,6.566875 15.82225,6.0906875 Z" id="Path"></path>
                                <circle id="Oval" cx="2.078125" cy="2.078125" r="2.078125"></circle>
                            </g>
                        </g>
                    </g>
                </g>
            </g>
        </g>
    </g>
</svg>