<?xml version="1.0" encoding="UTF-8"?>
<svg width="168px" height="43px" viewBox="0 0 168 43" version="1.1" xmlns="http://www.w3.org/2000/svg" xmlns:xlink="http://www.w3.org/1999/xlink">
    <!-- Generator: Sketch 52.6 (67491) - http://www.bohemiancoding.com/sketch -->
    <title>logo/eng</title>
    <desc>Created with Sketch.</desc>
    <g id="logo/eng" stroke="none" stroke-width="1" fill="none" fill-rule="evenodd">
        <g id="new-logo-color" transform="translate(0.000000, -1.000000)">
            <g id="g10" transform="translate(84.500000, 22.000000) scale(-1, 1) rotate(-180.000000) translate(-84.500000, -22.000000) translate(0.000000, 0.000000)">
                <g id="g12">
                    <g id="g14-Clipped">
                        <g id="g14">
                            <g id="g20" transform="translate(48.165170, 9.424308)" fill="#232323">
                                <path d="M16.3444972,8.07511717 L18.9561335,8.07511717 L18.9561335,7.18416257 C18.9561335,3.99906719 18.4175689,2.00855081 17.3353488,1.21503596 C16.2531288,0.420982775 13.5396743,0.0255712044 9.18533948,0.0255712044 C5.2881147,0.0255712044 2.80857409,0.724876351 1.75180857,2.12348664 C0.695043045,3.52209694 0.166660283,6.81432221 0.166660283,11.9977399 C0.166660283,16.0530638 0.283483247,18.6026474 0.522220083,19.6464909 C0.760956919,20.6903344 1.44179901,21.6243563 2.56983726,22.446134 C3.88570325,23.4059963 6.73634433,23.8856582 11.1110428,23.8856582 C14.0782389,23.8856582 16.0752149,23.4234924 17.1065259,22.4972764 C18.1330139,21.5732139 18.6461239,19.7869979 18.6461239,17.1378212 L18.6664876,16.5023094 L16.0548513,16.5023094 L16.0395785,17.2218024 C16.0395785,19.1078806 15.7346599,20.3178023 15.1250905,20.8537209 C14.5203441,21.3896395 13.1484781,21.660156 11.0092246,21.660156 C7.25963618,21.660156 4.96819126,21.3436114 4.13998076,20.7159056 C3.30667934,20.0879306 2.89511954,18.3474737 2.89511954,15.4915739 C2.89511954,8.92758037 3.16949274,5.07871036 3.72842096,3.94819395 C4.28708123,2.81767755 6.18759793,2.25349603 9.43934905,2.25349603 C12.5335499,2.25349603 14.4643441,2.49844125 15.2317317,2.98887003 C15.9988513,3.47876048 16.3798656,4.71398423 16.3798656,6.68942706 L16.3444972,8.07511717 Z" id="path22"></path>
                            </g>
                            <g id="g24" transform="translate(69.920312, 9.652214)" fill="#232323">
                                <polygon id="path26" points="19.023923 23.4178398 19.023923 0.0376838801 16.3970139 0.0376838801 16.3970139 10.879067 2.79008605 10.879067 2.79008605 0.0376838801 0.163177029 0.0376838801 0.163177029 23.4178398 2.79008605 23.4178398 2.79008605 13.1069918 16.3970139 13.1069918 16.3970139 23.4178398"></polygon>
                            </g>
                            <g id="g28" transform="translate(92.366934, 9.580050)" fill="#232323">
                                <polygon id="path30" points="2.67942577 21.2644752 2.67942577 13.2991796 14.497837 13.2991796 14.497837 11.0712548 2.67942577 11.0712548 2.67942577 2.33505471 15.006124 2.33505471 15.006124 0.109821593 0.0525167451 0.109821593 0.0525167451 23.4899775 15.006124 23.4899775 15.006124 21.2644752"></polygon>
                            </g>
                            <g id="g32" transform="translate(110.699270, 9.580050)" fill="#232323">
                                <polygon id="path34" points="2.67942577 21.2644752 2.67942577 13.0924566 14.0152724 13.0924566 14.0152724 10.8672235 2.67942577 10.8672235 2.67942577 0.109821593 0.0525167451 0.109821593 0.0525167451 23.4899775 14.3252819 23.4899775 14.3252819 21.2644752"></polygon>
                            </g>
                            <g id="g36" transform="translate(125.546263, 9.628043)" fill="#232323" fill-rule="nonzero">
                                <path d="M15.808612,6.99843488 L10.6461624,21.2827788 L5.54480369,6.99843488 L15.808612,6.99843488 Z M16.5757316,5.01303274 L4.79777978,5.01303274 L3.00444012,0.0616400611 L0.225071765,0.0616400611 L8.75100457,23.4420651 L12.4346791,23.4420651 L21.128344,0.0616400611 L18.384612,0.0616400611 L16.5757316,5.01303274 Z" id="path38"></path>
                            </g>
                            <g id="g40" transform="translate(146.794859, 9.628043)" fill="#232323" fill-rule="nonzero">
                                <path d="M15.808612,6.99843488 L10.6413394,21.2827788 L5.54507163,6.99843488 L15.808612,6.99843488 Z M16.5759996,5.01303274 L4.79322476,5.01303274 L3.00470806,0.0616400611 L0.225339707,0.0616400611 L8.75127251,23.4420651 L12.4349471,23.4420651 L21.128344,0.0616400611 L18.384612,0.0616400611 L16.5759996,5.01303274 Z" id="path42"></path>
                            </g>
                            <g id="g44" transform="translate(0.051820, 0.042502)" fill="#37B44E">
                                <path d="M31.3492815,11.0359935 C30.2523246,9.98299819 28.9895112,9.11250055 27.5975495,8.46218445 C25.3728223,7.35077916 22.8742578,6.70961486 20.2208225,6.70961486 C11.0510236,6.70961486 3.61722479,14.177214 3.61722479,23.3887694 C3.61722479,32.600863 11.0510236,40.0684622 20.2208225,40.0684622 C22.555942,40.0684622 24.7710233,39.5707658 26.7864874,38.696769 C31.5416643,35.9980648 32.6201332,31.5747848 32.6201332,31.5747848 C28.0308127,38.4962369 21.8801908,38.2674419 21.8801908,38.2674419 C23.5023152,23.6318304 39.862889,21.650735 39.862889,21.650735 C38.2364775,25.0161746 38.2354057,29.646716 38.2354057,29.646716 C37.4942766,40.2498832 31.0119418,41.8856328 27.8177983,41.6151163 C23.685052,42.9418581 19.112344,43.0139958 14.6811097,41.5289817 C3.58132048,37.8085061 -2.4146985,25.7531637 1.28853585,14.6022344 C4.99177021,3.45157425 16.9921144,-2.57219399 28.0921715,1.14828166 C32.5306403,2.63571824 36.1494728,5.45824087 38.6619703,9.02044422 L33.1570901,12.9460278 C32.6072719,12.2596429 31.9985064,11.6265537 31.3492815,11.0359935" id="path46"></path>
                            </g>
                        </g>
                    </g>
                </g>
            </g>
        </g>
    </g>
</svg>