<?xml version="1.0" encoding="UTF-8"?>
<svg width="84px" height="84px" viewBox="0 0 84 84" version="1.1" xmlns="http://www.w3.org/2000/svg" xmlns:xlink="http://www.w3.org/1999/xlink">
    <!-- Generator: Sketch 52.6 (67491) - http://www.bohemiancoding.com/sketch -->
    <title>makeup</title>
    <desc>Created with Sketch.</desc>
    <defs>
        <linearGradient x1="529.016031%" y1="-251.735852%" x2="-37.7626462%" y2="110.447861%" id="linearGradient-1">
            <stop stop-color="#36B44E" offset="0%"></stop>
            <stop stop-color="#FFFFFF" offset="100%"></stop>
        </linearGradient>
        <path d="M45.6296057,5.6709577 C45.8394367,5.89870418 45.9427043,6.2036901 45.9166761,6.51281686 L45.7876339,8.03267602 L28.0774085,8.03267602 L27.9481972,6.51281686 C27.9222535,6.2036901 28.0259437,5.89861967 28.2354366,5.6709577 C28.444,5.44219714 28.7392676,5.31408446 29.0487324,5.31408446 L44.8163099,5.31408446 C45.1256902,5.31408446 45.4210423,5.44219714 45.6296057,5.6709577 Z M26.3055493,34.6871268 C26.8066761,34.6871268 27.2126479,35.0930986 27.2125634,35.5941409 L27.2125634,39.7768169 C27.2125634,42.4448733 25.0496901,44.6065634 22.3829014,44.6065634 L11.5768169,44.6065634 C8.91002813,44.6065634 6.74715489,42.4448733 6.74715489,39.7768169 L6.74715489,37.2395775 C6.75949291,37.234 6.77301404,37.2310423 6.78543658,37.2257183 L12.3830141,34.6871268 L26.3055493,34.6871268 Z M22.185493,30.2428169 L22.6606761,30.3777747 C23.4234366,30.5956338 24.0621408,31.1184789 24.4247606,31.8242817 C24.5293803,32.0311549 24.5199155,32.2761409 24.400169,32.4749859 C24.2787324,32.6710423 24.0647606,32.7925634 23.8334648,32.7925634 L16.5633239,32.7925634 L22.185493,30.2428169 Z M23.0938592,26.4768451 C23.0080845,26.7029014 22.8379718,26.8842535 22.6186761,26.9837183 L5.63326756,34.6858592 C5.51487319,34.7390141 5.38667601,34.7661409 5.25721122,34.7661409 C5.14954925,34.7661409 5.04053516,34.7469578 4.93870418,34.7089296 C4.71366192,34.6245916 4.53138023,34.4527042 4.43183094,34.2348451 L4.19064784,33.7023662 C3.70456333,32.6292113 4.17991544,31.3638028 5.25307038,30.8774648 L20.0036901,24.1888169 C20.2895775,24.0606197 20.5892394,23.9980845 20.8834929,23.9980845 C21.6951831,23.9980845 22.4713803,24.4638873 22.8282535,25.2512394 L23.0707042,25.7823662 C23.170169,26.001662 23.1782817,26.2508732 23.0938592,26.4768451 Z M30.4664225,36.0926479 L28.2559718,10.1246479 L45.6090705,10.1246479 L43.4000564,36.0926479 L30.4664225,36.0926479 Z M30.5891268,41.8742817 L30.5891268,38.3847324 L43.2771831,38.3847324 L43.2771831,41.8742817 C43.2771831,43.383324 42.0541972,44.6065634 40.545155,44.6065634 L33.3210704,44.6065634 C31.8121972,44.6065634 30.5891268,43.383324 30.5891268,41.8742817 Z" id="path-2"></path>
        <filter x="-16.7%" y="-12.7%" width="133.4%" height="135.6%" filterUnits="objectBoundingBox" id="filter-3">
            <feOffset dx="0" dy="2" in="SourceAlpha" result="shadowOffsetOuter1"></feOffset>
            <feGaussianBlur stdDeviation="2" in="shadowOffsetOuter1" result="shadowBlurOuter1"></feGaussianBlur>
            <feColorMatrix values="0 0 0 0 0.211764706   0 0 0 0 0.705882353   0 0 0 0 0.305882353  0 0 0 0.3 0" type="matrix" in="shadowBlurOuter1"></feColorMatrix>
        </filter>
    </defs>
    <g id="UI" stroke="none" stroke-width="1" fill="none" fill-rule="evenodd">
        <g id="Home" transform="translate(-305.000000, -997.000000)">
            <g id="Group-6-Copy-2" transform="translate(235.000000, 997.000000)">
                <g id="makeup" transform="translate(70.000000, 0.000000)">
                    <circle id="Oval-Copy-3" fill="url(#linearGradient-1)" cx="42" cy="42" r="42"></circle>
                    <g id="icons/services/makeup" transform="translate(17.000000, 17.000000)" fill-rule="nonzero">
                        <g id="Combined-Shape">
                            <use fill="black" fill-opacity="1" filter="url(#filter-3)" xlink:href="#path-2"></use>
                            <use fill="#36B44E" xlink:href="#path-2"></use>
                        </g>
                    </g>
                </g>
            </g>
        </g>
    </g>
</svg>