<?xml version="1.0" encoding="UTF-8"?>
<svg width="41px" height="51px" viewBox="0 0 41 51" version="1.1" xmlns="http://www.w3.org/2000/svg" xmlns:xlink="http://www.w3.org/1999/xlink">
    <!-- Generator: Sketch 52.6 (67491) - http://www.bohemiancoding.com/sketch -->
    <title>icons/attach/none</title>
    <desc>Created with Sketch.</desc>
    <g id="icons/attach/none" stroke="none" stroke-width="1" fill="none" fill-rule="evenodd">
        <g id="attach-file" fill="#CBD6E3" fill-rule="nonzero">
            <path d="M34.929447,3.08789062 L19.4400496,3.08789062 C18.4057401,1.24822998 16.417199,0 14.137931,0 C11.8586631,0 9.87012197,1.24822998 8.83581245,3.08789062 L6.0591133,3.08789062 C2.71792252,3.08789062 2.84217094e-14,5.76878352 2.84217094e-14,9.06445312 L2.84217094e-14,45.0234375 C2.84217094e-14,48.3191071 2.71792252,51 6.0591133,51 L34.9298414,51 C38.2706377,51 40.9889547,48.3191071 40.9889547,45.0234375 L40.9889547,9.06445312 C40.9885603,5.76878352 38.2706377,3.08789062 34.929447,3.08789062 Z M34.929447,47.015625 L6.0591133,47.015625 C4.94551452,47.015625 4.03940887,46.1218643 4.03940887,45.0234375 L4.03940887,9.06445312 C4.03940887,7.96602628 4.94551452,7.07226562 6.0591133,7.07226562 L16.1576355,7.07226562 L16.1576355,21.3164062 C16.1576355,22.4148331 15.2515298,23.3085938 14.137931,23.3085938 C13.0243323,23.3085938 12.1182266,22.4148331 12.1182266,21.3164062 L12.1182266,13.7736107 C12.1182266,12.6581587 11.2139741,11.7539062 10.0985222,11.7539062 L10.0985222,11.7539062 C8.98307021,11.7539062 8.07881773,12.6581587 8.07881773,13.7736107 L8.07881773,21.3164062 C8.07881773,24.6120759 10.7967403,27.2929688 14.137931,27.2929688 C17.4791218,27.2929688 20.1970443,24.6120759 20.1970443,21.3164062 L20.1970443,7.07226562 L34.9298414,7.07226562 C36.0434402,7.07226562 36.9495459,7.96602628 36.9495459,9.06445312 L36.9495459,45.0234375 C36.9491514,46.1218643 36.0430457,47.015625 34.929447,47.015625 Z M10.0710052,39.046875 L22.7491918,39.046875 C23.8494466,39.046875 24.7413793,39.9388077 24.7413793,41.0390625 L24.7413793,41.0390625 C24.7413793,42.1393173 23.8494466,43.03125 22.7491918,43.03125 L10.0710052,43.03125 C8.97075046,43.03125 8.07881773,42.1393173 8.07881773,41.0390625 L8.07881773,41.0390625 C8.07881773,39.9388077 8.97075046,39.046875 10.0710052,39.046875 Z M10.0710052,31.1777344 L30.8280095,31.1777344 C31.9282643,31.1777344 32.820197,32.0696671 32.820197,33.1699219 L32.820197,33.1699219 C32.820197,34.2701767 31.9282643,35.1621094 30.8280095,35.1621094 L10.0710052,35.1621094 C8.97075046,35.1621094 8.07881773,34.2701767 8.07881773,33.1699219 L8.07881773,33.1699219 C8.07881773,32.0696671 8.97075046,31.1777344 10.0710052,31.1777344 Z M26.1276555,23.4082031 L30.8280095,23.4082031 C31.9282643,23.4082031 32.820197,24.3001358 32.820197,25.4003906 L32.820197,25.4003906 C32.820197,26.5006454 31.9282643,27.3925781 30.8280095,27.3925781 L26.1276555,27.3925781 C25.0274007,27.3925781 24.135468,26.5006454 24.135468,25.4003906 L24.135468,25.4003906 C24.135468,24.3001358 25.0274007,23.4082031 26.1276555,23.4082031 Z M26.1276555,15.5390625 L30.8280095,15.5390625 C31.9282643,15.5390625 32.820197,16.4309952 32.820197,17.53125 L32.820197,17.53125 C32.820197,18.6315048 31.9282643,19.5234375 30.8280095,19.5234375 L26.1276555,19.5234375 C25.0274007,19.5234375 24.135468,18.6315048 24.135468,17.53125 L24.135468,17.53125 C24.135468,16.4309952 25.0274007,15.5390625 26.1276555,15.5390625 Z" id="Shape"></path>
        </g>
    </g>
</svg>