<?xml version="1.0" encoding="UTF-8"?>
<svg width="24px" height="24px" viewBox="0 0 24 24" version="1.1" xmlns="http://www.w3.org/2000/svg" xmlns:xlink="http://www.w3.org/1999/xlink">
    <!-- Generator: Sketch 52.6 (67491) - http://www.bohemiancoding.com/sketch -->
    <title>icons/servicesB2C/offer</title>
    <desc>Created with Sketch.</desc>
    <g id="icons/servicesB2C/offer" stroke="none" stroke-width="1" fill="none" fill-rule="evenodd" stroke-linecap="round" stroke-linejoin="round">
        <g id="Group" transform="translate(5.000000, 5.000000)" fill="#36B44E" fill-rule="nonzero">
            <g id="Combined-Shape">
                <path d="M11.6194866,0.730597668 C12.0750983,0.274985995 12.8137908,0.274985995 13.2694024,0.730597668 C13.7250141,1.18620934 13.7250141,1.92490182 13.2694024,2.38051349 L2.38051349,13.2694024 C1.92490182,13.7250141 1.18620934,13.7250141 0.730597668,13.2694024 C0.274985995,12.8137908 0.274985995,12.0750983 0.730597668,11.6194866 L11.6194866,0.730597668 Z M2.72222225,5.83333338 C1.00400303,5.83333338 -0.388888869,4.44044148 -0.388888869,2.72222225 C-0.388888869,1.00400303 1.00400303,-0.388888869 2.72222225,-0.388888869 C4.44044148,-0.388888869 5.83333338,1.00400303 5.83333338,2.72222225 C5.83333338,4.44044148 4.44044148,5.83333338 2.72222225,5.83333338 Z M2.72222225,3.50000004 C3.15177707,3.50000004 3.50000004,3.15177707 3.50000004,2.72222225 C3.50000004,2.29266744 3.15177707,1.94444446 2.72222225,1.94444446 C2.29266744,1.94444446 1.94444446,2.29266744 1.94444446,2.72222225 C1.94444446,3.15177707 2.29266744,3.50000004 2.72222225,3.50000004 Z M11.2777779,14.388889 C9.55955863,14.388889 8.16666674,12.9959971 8.16666674,11.2777779 C8.16666674,9.55955863 9.55955863,8.16666674 11.2777779,8.16666674 C12.9959971,8.16666674 14.388889,9.55955863 14.388889,11.2777779 C14.388889,12.9959971 12.9959971,14.388889 11.2777779,14.388889 Z M11.2777779,12.0555557 C11.7073327,12.0555557 12.0555557,11.7073327 12.0555557,11.2777779 C12.0555557,10.8482231 11.7073327,10.5000001 11.2777779,10.5000001 C10.8482231,10.5000001 10.5000001,10.8482231 10.5000001,11.2777779 C10.5000001,11.7073327 10.8482231,12.0555557 11.2777779,12.0555557 Z"></path>
            </g>
        </g>
    </g>
</svg>