<?xml version="1.0" encoding="UTF-8"?>
<svg width="24px" height="24px" viewBox="0 0 24 24" version="1.1" xmlns="http://www.w3.org/2000/svg" xmlns:xlink="http://www.w3.org/1999/xlink">
    <!-- Generator: Sketch 52.6 (67491) - http://www.bohemiancoding.com/sketch -->
    <title>icons/servicesB2C/payment</title>
    <desc>Created with Sketch.</desc>
    <g id="icons/servicesB2C/payment" stroke="none" stroke-width="1" fill="none" fill-rule="evenodd">
        <path d="M13.6,5.93333335 L16.1666667,5.93333335 C16.7741799,5.93333335 17.2666667,6.42582013 17.2666667,7.03333335 C17.2666667,7.64084658 16.7741799,8.13333335 16.1666667,8.13333335 L13.6,8.13333335 L13.6,11.0666667 L14.3333334,11.0666667 C16.3583775,11.0666668 18,12.7082893 18,14.7333334 C18,16.7583775 16.3583775,18.4 14.3333334,18.4000001 L13.6,18.4000001 L13.6,20.2333334 C13.6,20.8408467 13.1075133,21.3333334 12.5,21.3333334 C11.8924868,21.3333334 11.4,20.8408467 11.4,20.2333334 L11.4,18.4000001 L8.1,18.4000001 C7.49248678,18.4000001 7,17.9075133 7,17.3000001 C7,16.6924869 7.49248678,16.2000001 8.1,16.2000001 L11.4,16.2000001 L11.4,13.2666667 L10.6666667,13.2666667 C8.64162259,13.2666667 7,11.6250441 7,9.60000003 C7,7.57495594 8.64162259,5.93333335 10.6666667,5.93333335 L11.4,5.93333335 L11.4,4.1 C11.4,3.49248678 11.8924868,3 12.5,3 C13.1075133,3 13.6,3.49248678 13.6,4.1 L13.6,5.93333335 Z M13.6,13.2666667 L13.6,16.2000001 L14.3333333,16.2000001 C15.143351,16.2000001 15.8,15.543351 15.8,14.7333334 C15.8,13.9233158 15.143351,13.2666667 14.3333334,13.2666667 L13.6,13.2666667 Z M11.4,11.0666667 L11.4,8.13333335 L10.6666667,8.13333335 C9.85664904,8.13333335 9.2,8.78998239 9.2,9.60000003 C9.2,10.4100177 9.85664904,11.0666667 10.6666667,11.0666667 L11.4,11.0666667 Z" id="Combined-Shape" fill="#36B44E" fill-rule="nonzero"></path>
    </g>
</svg>