<?xml version="1.0" encoding="UTF-8"?>
<svg width="24px" height="24px" viewBox="0 0 24 24" version="1.1" xmlns="http://www.w3.org/2000/svg" xmlns:xlink="http://www.w3.org/1999/xlink">
    <!-- Generator: Sketch 52.6 (67491) - http://www.bohemiancoding.com/sketch -->
    <title>icons/servicesB2C/pckgs</title>
    <desc>Created with Sketch.</desc>
    <g id="icons/servicesB2C/pckgs" stroke="none" stroke-width="1" fill="none" fill-rule="evenodd">
        <g id="Group" transform="translate(4.000000, 5.000000)" fill="#36B44E" fill-rule="nonzero">
            <path d="M2.66666662,4.66666666 L5.66666665,4.66666666 C6.2189514,4.66666666 6.66666665,5.11438191 6.66666665,5.66666666 C6.66666665,6.21895141 6.2189514,6.66666666 5.66666665,6.66666666 L1.66666662,6.66666666 C1.11438187,6.66666666 0.666666621,6.21895141 0.666666621,5.66666666 L0.666666621,1.66666663 C0.666666621,1.11438188 1.11438187,0.666666633 1.66666662,0.666666633 C2.21895137,0.666666633 2.66666662,1.11438188 2.66666662,1.66666663 L2.66666662,4.66666666 Z" id="Shape"></path>
            <path d="M2.39682466,9.33229559 C2.21330288,8.81139425 2.48680305,8.24034649 3.00770439,8.05682471 C3.52860572,7.87330293 4.09965349,8.1468031 4.28317527,8.66770443 C5.02317883,10.7681028 7.06308595,12.1259253 9.28635041,11.9979657 C11.5096149,11.8700061 13.3802696,10.287112 13.8744089,8.1156828 C14.3685483,5.9442536 13.367049,3.70776032 11.4180833,2.63035094 C9.4691175,1.55294155 7.04252655,1.8943494 5.44477656,3.48875304 L2.35144321,6.39541972 C1.948964,6.77361139 1.31610522,6.75392245 0.937913557,6.35144324 C0.559721892,5.94896404 0.579410832,5.31610526 0.981890035,4.93791359 L4.05349134,2.05229555 C6.25991645,-0.150401432 9.65714378,-0.628372427 12.3856958,0.88000071 C15.1142479,2.38837385 16.5163468,5.51946443 15.8245518,8.55946531 C15.1327567,11.5994662 12.5138401,13.815518 9.40126985,13.9946613 C6.28869961,14.1738047 3.43282965,12.2728533 2.39682466,9.33229559 Z" id="Shape"></path>
        </g>
    </g>
</svg>