<?xml version="1.0" encoding="UTF-8"?>
<svg width="24px" height="24px" viewBox="0 0 24 24" version="1.1" xmlns="http://www.w3.org/2000/svg" xmlns:xlink="http://www.w3.org/1999/xlink">
    <!-- Generator: Sketch 52.6 (67491) - http://www.bohemiancoding.com/sketch -->
    <title>icons/servicesB2C/remind</title>
    <desc>Created with Sketch.</desc>
    <g id="icons/servicesB2C/remind" stroke="none" stroke-width="1" fill="none" fill-rule="evenodd">
        <path d="M15.3333334,13 L15.3333334,9.66666664 C15.3333334,7.64162256 13.6917108,6 11.6666667,6 C9.64162263,6 8.00000004,7.64162256 8.00000001,9.66666663 L8.00000001,13 C8.00000001,13.3506354 7.93984579,13.6872211 7.8292943,14 L15.5040391,14 C15.3934876,13.6872211 15.3333334,13.3506354 15.3333334,13 Z M18.3333334,16 L5,16 C3.66666667,16 3.66666667,14 5,14 C5.55228476,14 6.00000001,13.5522847 6.00000001,13 L6.00000001,9.66666661 C6.00000006,6.53705305 8.53705314,4 11.6666667,4 C14.7962803,4 17.3333334,6.53705305 17.3333334,9.66666663 L17.3333334,13 C17.3333334,13.5522847 17.7810487,14 18.3333334,14 C19.6666668,14 19.6666668,16 18.3333334,16 Z M13.685,18.1684385 C13.2675693,18.8880436 12.4985801,19.3309709 11.6666667,19.3309709 C10.8347533,19.3309709 10.0657641,18.8880436 9.64833337,18.1684385 C9.26161253,17.501774 9.74262288,16.6666667 10.5133334,16.6666667 L12.82,16.6666667 C13.5907105,16.6666667 14.0717209,17.501774 13.685,18.1684385 Z" id="Shape" fill="#36B44E" fill-rule="nonzero"></path>
    </g>
</svg>