<?xml version="1.0" encoding="UTF-8"?>
<svg width="24px" height="24px" viewBox="0 0 24 24" version="1.1" xmlns="http://www.w3.org/2000/svg" xmlns:xlink="http://www.w3.org/1999/xlink">
    <!-- Generator: Sketch 52.6 (67491) - http://www.bohemiancoding.com/sketch -->
    <title>icons/servicesB2C/search</title>
    <desc>Created with Sketch.</desc>
    <g id="icons/servicesB2C/search" stroke="none" stroke-width="1" fill="none" fill-rule="evenodd" stroke-linecap="round" stroke-linejoin="round">
        <g id="Group" transform="translate(5.000000, 5.000000)" fill="#36B44E" fill-rule="nonzero">
            <g>
                <path d="M6.33333338,12.6666667 C2.83552995,12.6666667 1.24999993e-08,9.83113681 1.24999993e-08,6.33333338 C1.24999993e-08,2.83552995 2.83552995,1.25000952e-08 6.33333338,1.25000952e-08 C9.83113681,1.25000952e-08 12.6666667,2.83552995 12.6666667,6.33333338 C12.6666667,9.83113681 9.83113681,12.6666667 6.33333338,12.6666667 Z M6.33333338,10.6666667 C8.72656731,10.6666667 10.6666667,8.72656731 10.6666667,6.33333338 C10.6666667,3.94009944 8.72656731,2.00000001 6.33333338,2.00000001 C3.94009944,2.00000001 2.00000001,3.94009944 2.00000001,6.33333338 C2.00000001,8.72656731 3.94009944,10.6666667 6.33333338,10.6666667 Z" id="Oval"></path>
                <path d="M13.7071069,12.2928933 C14.0976312,12.6834176 14.0976312,13.3165826 13.7071069,13.7071069 C13.3165826,14.0976312 12.6834176,14.0976312 12.2928933,13.7071069 L9.39289329,10.8071069 C9.002369,10.4165826 9.002369,9.78341758 9.39289329,9.39289329 C9.78341758,9.002369 10.4165826,9.002369 10.8071069,9.39289329 L13.7071069,12.2928933 Z" id="Shape"></path>
            </g>
        </g>
    </g>
</svg>