<?xml version="1.0" encoding="UTF-8"?>
<svg width="417px" height="367px" viewBox="0 0 417 367" version="1.1" xmlns="http://www.w3.org/2000/svg" xmlns:xlink="http://www.w3.org/1999/xlink">
    <!-- Generator: Sketch 52.6 (67491) - http://www.bohemiancoding.com/sketch -->
    <title>testmonials</title>
    <desc>Created with Sketch.</desc>
    <g id="UI" stroke="none" stroke-width="1" fill="none" fill-rule="evenodd">
        <g id="Home" transform="translate(-229.000000, -2393.000000)">
            <g id="testmonials" transform="translate(229.000000, 2393.000000)">
                <path d="M205.999617,367 C113.216,367 38,360.060865 38,351.500386 C38,342.939135 113.216,336 205.999617,336 C239.570004,336 270.834822,336.908292 297.075293,338.473302 L310.131251,348.052426 C311.529284,349.078788 313.081889,349.541809 314.597763,349.541037 C318.562299,349.541037 322.272022,346.372433 322.272022,341.81631 L322.272022,340.312265 C354.152067,343.132832 374,347.102462 374,351.500386 C374,360.060865 298.783235,367 205.999617,367" id="Fill-3" fill="#F2F6FA"></path>
                <path d="M72.19738,54 L38.1345509,54 C29.7894166,54 23,47.2307346 23,38.9103691 C23,30.5900035 29.7894166,23.8207381 38.1345509,23.8207381 C38.2457279,23.8207381 38.358428,23.8222566 38.472651,23.8252935 C38.2289752,22.5718102 38.1063758,21.298587 38.1063758,20.0246046 C38.1063758,8.98317047 47.1155266,0 58.1905911,0 C66.5707537,0 73.9297625,5.07391213 76.9140294,12.7626011 C78.8969411,11.7976239 81.0854543,11.3155149 83.2724445,11.3155149 C85.4739029,11.3155149 87.6730769,11.8036977 89.6605576,12.7762671 C91.4036009,7.10484359 96.6837506,3.13181019 102.755085,3.13181019 C109.937429,3.13181019 115.847328,8.66885062 116.416159,15.6863831 C116.649935,15.6666432 116.882189,15.6567733 117.112158,15.6567733 C121.392475,15.6567733 124.921205,19.0186292 125.2258,23.2262636 C126.387829,22.8648717 127.589455,22.6818981 128.816211,22.6818981 C135.534047,22.6818981 141,28.1316274 141,34.8295255 C141,41.5274236 135.534047,46.9771529 128.816211,46.9771529 L52.3987223,46.9771529 C51.7682112,46.9771529 51.256492,46.4677118 51.256492,45.8383128 C51.256492,45.2089139 51.7682112,44.6994728 52.3987223,44.6994728 L128.816211,44.6994728 C134.274548,44.6994728 138.715539,40.2716626 138.715539,34.8295255 C138.715539,29.3873884 134.274548,24.9595782 128.816211,24.9595782 C127.322935,24.9595782 125.873064,25.2943972 124.507718,25.9549244 L122.535467,26.9085132 L122.881182,24.7507909 C122.936771,24.4061019 122.963423,24.1024112 122.963423,23.8207381 C122.963423,20.5765624 120.315733,17.9367311 117.0619,17.9367311 C116.585209,17.9367311 116.091004,18.0020246 115.591469,18.1288155 L114.137029,18.5015958 L114.165965,17.0044007 L114.174342,16.8404077 C114.177388,10.5183269 109.053343,5.40949033 102.755085,5.40949033 C97.2571502,5.40949033 92.5382163,9.31874868 91.5338152,14.7054622 L91.2261745,16.3567803 L89.8014326,15.4608928 C87.8352736,14.2248717 85.5767037,13.5711775 83.2709215,13.5711775 C81.0237739,13.5711775 78.8124161,14.1960211 76.8767166,15.3781371 L75.6255937,16.1419192 L75.1892617,14.744942 C72.862158,7.28781722 66.0308596,2.27768014 58.1905911,2.27768014 C48.3757873,2.27768014 40.3908363,10.2389315 40.3908363,20.0246046 C40.3908363,21.6273322 40.6101446,23.2293005 41.0434306,24.7841968 L41.5041301,26.4377926 L39.7968766,26.2183761 C39.1602736,26.1363796 38.6325632,26.0984183 38.1345509,26.0984183 C31.0489158,26.0984183 25.2844605,31.8457645 25.2844605,38.9103691 C25.2844605,45.9749736 31.0489158,51.7223199 38.1345509,51.7223199 L72.19738,51.7223199 C72.8286526,51.7223199 73.3396102,52.231761 73.3396102,52.8611599 C73.3396102,53.4905589 72.8286526,54 72.19738,54" id="Fill-4" fill-opacity="0.433112545" fill="#4FB9ED"></path>
                <path d="M21.9285714,72 L14.0714286,72 C13.48,72 13,71.552 13,71 C13,70.4473333 13.48,70 14.0714286,70 L21.9285714,70 C22.5207143,70 23,70.4473333 23,71 C23,71.552 22.5207143,72 21.9285714,72" id="Fill-5" fill-opacity="0.433112545" fill="#4FB9ED"></path>
                <path d="M68.868112,72 L30.131888,72 C29.5070858,72 29,71.552 29,71 C29,70.4473333 29.5070858,70 30.131888,70 L68.868112,70 C69.4929142,70 70,70.4473333 70,71 C70,71.552 69.4929142,72 68.868112,72" id="Fill-6" fill-opacity="0.433112545" fill="#4FB9ED"></path>
                <path d="M75.3800603,86 L62.1843239,86 C61.5297875,86 61,85.5526667 61,85 C61,84.448 61.5297875,84 62.1843239,84 L82.1859747,84 C82.5010049,84 82.7876113,84.104 83,84.2733333 C80.3336922,84.564 77.7763422,85.1533333 75.3800603,86" id="Fill-7" fill-opacity="0.433112545" fill="#4FB9ED"></path>
                <path d="M407.854311,56 L324.603933,56 C319.307792,56 315,51.6843605 315,46.379513 C315,41.0922616 319.259673,36.7574958 324.550467,36.7574958 C324.733778,36.7574958 324.917852,36.7628512 325.103453,36.7735619 C325.680881,29.7450597 331.576599,24.2030472 338.739449,24.2030472 C339.386382,24.2030472 340.034842,24.2497151 340.677956,24.342286 C342.059657,15.5113292 349.570797,9 358.637783,9 C366.472008,9 373.33927,13.9804668 375.839165,21.2859166 C377.391956,20.4726699 379.108962,20.0480678 380.880198,20.0480678 C386.91569,20.0480678 391.826115,24.9665657 391.826115,31.0119803 C391.826115,31.5872969 391.780288,32.1618485 391.689396,32.7318097 C395.706947,33.2306215 398.826278,36.6718104 398.826278,40.8283198 C398.826278,45.3275711 395.172292,48.9883289 390.680426,48.9883289 L358.198602,48.9883289 C357.566182,48.9883289 357.052913,48.4742162 357.052913,47.8407559 C357.052913,47.2065306 357.566182,46.6931829 358.198602,46.6931829 L390.680426,46.6931829 C393.908215,46.6931829 396.534899,44.0621806 396.534899,40.8283198 C396.534899,37.5952241 393.908215,34.9642218 390.680426,34.9642218 C390.604046,34.9642218 390.529195,34.9703422 390.454343,34.9756975 L388.696092,35.0805092 L389.166588,33.5083341 C389.411002,32.6920272 389.534736,31.8520038 389.534736,31.0119803 C389.534736,26.2319562 385.652377,22.3432139 380.880198,22.3432139 C379.064662,22.3432139 377.319395,22.9085848 375.835346,23.9788879 L374.465865,24.9658007 L374.054944,23.3270664 C372.278362,16.2434808 365.93888,11.295146 358.637783,11.295146 C350.342992,11.295146 343.536833,17.5310577 342.80741,25.7989387 L342.69055,27.124003 L341.398976,26.8141583 C340.524433,26.6045349 339.630032,26.4981932 338.739449,26.4981932 C332.45878,26.4981932 327.349005,31.6163688 327.349005,37.907364 L327.372682,39.4558225 L325.990981,39.1911157 C325.520484,39.1008399 325.053807,39.054937 324.603933,39.054937 C320.57187,39.054937 317.291379,42.340821 317.291379,46.379513 C317.291379,50.4182049 320.57187,53.704854 324.603933,53.704854 L407.854311,53.704854 C408.486731,53.704854 409,54.2182016 409,54.852427 C409,55.4866523 408.486731,56 407.854311,56" id="Fill-8" fill-opacity="0.433112545" fill="#4FB9ED"></path>
                <path d="M401.863636,64 L379.136364,64 C378.509091,64 378,63.5526667 378,63 C378,62.4473333 378.509091,62 379.136364,62 L401.863636,62 C402.490909,62 403,62.4473333 403,63 C403,63.5526667 402.490909,64 401.863636,64" id="Fill-9" fill-opacity="0.433112545" fill="#4FB9ED"></path>
                <path d="M373.842791,72 L367.157209,72 C366.51843,72 366,71.552 366,70.9993333 C366,70.4473333 366.51843,70 367.157209,70 L373.842791,70 C374.48157,70 375,70.4473333 375,70.9993333 C375,71.552 374.48157,72 373.842791,72" id="Fill-10" fill-opacity="0.433112545" fill="#4FB9ED"></path>
                <path d="M349.897959,49 L343.102041,49 C342.493714,49 342,48.552 342,48 C342,47.4473333 342.493714,47 343.102041,47 L349.897959,47 C350.506286,47 351,47.4473333 351,48 C351,48.552 350.506286,49 349.897959,49" id="Fill-11" fill-opacity="0.433112545" fill="#4FB9ED"></path>
                <path d="M20,197 C18.7561538,197 17.5123077,196.260769 17.1230769,194.782308 L14.0176923,182.982308 L2.21769231,179.877692 C-0.739230769,179.099231 -0.739230769,174.901538 2.21769231,174.123077 L14.0176923,171.017692 L17.1230769,159.218462 C17.5123077,157.74 18.7561538,157 20,157 C21.2438462,157 22.4876923,157.74 22.8769231,159.218462 L25.9823077,171.017692 L37.7823077,174.123077 C40.7392308,174.901538 40.7392308,179.099231 37.7823077,179.877692 L25.9823077,182.982308 L22.8769231,194.782308 C22.4876923,196.260769 21.2438462,197 20,197" id="Fill-12" fill-opacity="0.433112545" fill="#4FB9ED"></path>
                <path d="M34.9058355,213 L26.0941645,213 C25.4894562,213 25,212.552667 25,212 C25,211.448 25.4894562,211 26.0941645,211 L34.9058355,211 C35.5098143,211 36,211.448 36,212 C36,212.552667 35.5098143,213 34.9058355,213" id="Fill-13" fill-opacity="0.433112545" fill="#4FB9ED"></path>
                <path d="M26.8522138,224 L7.14855135,224 C6.5142082,224 6,223.552 6,223 C6,222.448 6.5142082,222 7.14855135,222 L26.8522138,222 C27.4857918,222 28,222.448 28,223 C28,223.552 27.4857918,224 26.8522138,224" id="Fill-14" fill-opacity="0.433112545" fill="#4FB9ED"></path>
                <path d="M21.857288,213 L18.1434738,213 C17.511935,213 17,212.552667 17,212 C17,211.448 17.511935,211 18.1434738,211 L21.857288,211 C22.488065,211 23,211.448 23,212 C23,212.552667 22.488065,213 21.857288,213" id="Fill-15" fill-opacity="0.433112545" fill="#4FB9ED"></path>
                <path d="M407,204 C406.377731,204 405.756239,203.630205 405.561246,202.890615 L404.00907,196.991765 L398.108781,195.438782 C396.630406,195.049565 396.630406,192.950435 398.108781,192.561995 L404.00907,191.009012 L405.561246,185.109385 C405.756239,184.369795 406.377731,184 407,184 C407.622269,184 408.244538,184.369795 408.438754,185.109385 L409.99093,191.009012 L415.891219,192.561995 C417.369594,192.950435 417.369594,195.049565 415.891219,195.438782 L409.99093,196.991765 L408.438754,202.890615 C408.244538,203.630205 407.622269,204 407,204" id="Fill-16" fill-opacity="0.433112545" fill="#4FB9ED"></path>
                <path d="M391.869262,154 L357.130738,154 C356.506571,154 356,153.552 356,153 C356,152.447333 356.506571,152 357.130738,152 L391.869262,152 C392.493429,152 393,152.447333 393,153 C393,153.552 392.493429,154 391.869262,154" id="Fill-17" fill-opacity="0.433112545" fill="#4FB9ED"></path>
                <path d="M386.808788,165 L371.191212,165 C370.533663,165 370,164.552667 370,164 C370,163.447333 370.533663,163 371.191212,163 L386.808788,163 C387.467131,163 388,163.447333 388,164 C388,164.552667 387.467131,165 386.808788,165" id="Fill-18" fill-opacity="0.433112545" fill="#4FB9ED"></path>
                <path d="M404.863158,154 L398.136842,154 C397.509305,154 397,153.552 397,153 C397,152.447333 397.509305,152 398.136842,152 L404.863158,152 C405.491453,152 406,152.447333 406,153 C406,153.552 405.491453,154 404.863158,154" id="Fill-19" fill-opacity="0.433112545" fill="#4FB9ED"></path>
                <path d="M385.83871,284 L364.16129,284 C363.520258,284 363,283.552 363,283 C363,282.448 363.520258,282 364.16129,282 L385.83871,282 C386.480516,282 387,282.448 387,283 C387,283.552 386.480516,284 385.83871,284" id="Fill-20" fill-opacity="0.433112545" fill="#4FB9ED"></path>
                <path d="M399.84289,284 L393.15711,284 C392.518385,284 392,283.552 392,283 C392,282.448 392.518385,282 393.15711,282 L399.84289,282 C400.481615,282 401,282.448 401,283 C401,283.552 400.481615,284 399.84289,284" id="Fill-21" fill-opacity="0.433112545" fill="#4FB9ED"></path>
                <path d="M411.84461,292 L376.15539,292 C375.517615,292 375,291.552 375,291 C375,290.448 375.517615,290 376.15539,290 L411.84461,290 C412.482385,290 413,290.448 413,291 C413,291.552 412.482385,292 411.84461,292" id="Fill-22" fill-opacity="0.433112545" fill="#4FB9ED"></path>
                <path d="M369.941145,300 L364.058855,300 C363.474367,300 363,299.552 363,299 C363,298.448 363.474367,298 364.058855,298 L369.941145,298 C370.525633,298 371,298.448 371,299 C371,299.552 370.525633,300 369.941145,300" id="Fill-23" fill-opacity="0.433112545" fill="#4FB9ED"></path>
                <path d="M77.8361868,284 L50.1638132,284 C49.5206124,284 49,283.552 49,283 C49,282.448 49.5206124,282 50.1638132,282 L77.8361868,282 C78.4793876,282 79,282.448 79,283 C79,283.552 78.4793876,284 77.8361868,284" id="Fill-24" fill-opacity="0.433112545" fill="#4FB9ED"></path>
                <path d="M63.8322148,291 L37.1677852,291 C36.5223893,291 36,290.552 36,290 C36,289.448 36.5223893,289 37.1677852,289 L63.8322148,289 C64.4768322,289 65,289.448 65,290 C65,290.552 64.4768322,291 63.8322148,291" id="Fill-25" fill-opacity="0.433112545" fill="#4FB9ED"></path>
                <path d="M85.9,300 L77.1,300 C76.4920667,300 76,299.552 76,299 C76,298.448 76.4920667,298 77.1,298 L85.9,298 C86.5072,298 87,298.448 87,299 C87,299.552 86.5072,300 85.9,300" id="Fill-26" fill-opacity="0.433112545" fill="#4FB9ED"></path>
                <path d="M353,182.253336 L353,282.888582 C353,297.385691 341.208648,309.141917 326.665573,309.141917 L320.701849,309.141917 L320.701849,341.370166 C320.701849,347.590508 313.621074,351.192681 308.571024,347.529532 L255.643741,309.141917 L184.335192,309.141917 C170.397664,309.141917 159.005423,298.368171 158.071871,284.719394 C158.020644,284.116491 158,283.502155 158,282.888582 L158,182.253336 C158,167.755464 169.782177,156 184.335192,156 L326.665573,156 C341.208648,156 353,167.755464 353,182.253336" id="Fill-27" fill="#EBEBEB"></path>
                <path d="M287,156 L287,240.551457 C287,256.403185 274.158882,269.261325 258.327378,269.261325 L180.678016,269.261325 L159.071708,285 C159.020597,284.395783 159,283.780108 159,283.165196 L159,182.310567 C159,167.78109 170.755577,156 185.275736,156 L287,156" id="Fill-28" fill="#D6D6D6"></path>
                <path d="M177.131203,325.043476 C180.371473,324.462085 183.531038,323.470627 186.73963,322.721085 C195.65867,320.637436 204.972938,320.443111 213.963631,322.152384 C214.146915,323.450798 213.618183,324.7738 212.811133,325.775569 C212.004082,326.777338 210.940586,327.507844 209.877844,328.196313 C205.651011,330.932737 201.179046,333.221023 196.706327,335.483927 C192.490053,337.615958 188.211931,339.74799 183.628337,340.733102 C182.425304,340.991675 181.151371,341.165378 179.986804,340.754518 C178.612556,340.269893 177.605628,339.056349 176.668846,337.893566 C174.285407,334.935055 171.90046,331.974958 169.516267,329.016447 C168.274767,327.475325 166.692344,325.025233 169.839841,325.377399 C172.277586,325.650249 174.718348,325.476545 177.131203,325.043476" id="Fill-29" fill="#626B82"></path>
                <path d="M198,285.38526 C195.574676,287.325685 195.116064,290.832389 192.673522,292.753007 C191.562992,293.626749 190.151937,294.078659 188.76123,294.462342 C187.197565,294.893711 185.502421,295.259787 183.963017,294.756524 C182.573093,294.300946 181.531433,293.19538 180.778557,292.009116 C179.660983,290.246227 179.041934,288.208964 179.001238,286.159229 C178.988716,285.521713 179.063848,284.813769 179.565504,284.383868 C179.891072,284.103625 180.338727,283.995049 180.769948,283.902613 C183.033271,283.416957 185.346681,283.13598 187.667917,283.061884 C189.782543,282.994391 192.408216,282.813921 194.32484,283.698667 C195.548067,284.264288 196.775208,284.823307 198,285.38526" id="Fill-30" fill="#F1A482"></path>
                <path d="M223,307.38136 C221.893425,310.72046 219.89369,313.855845 217.183833,316.074508 C216.629406,316.527891 215.964094,316.96902 215.259288,316.851079 C214.770937,316.770665 214.371445,316.434457 213.936258,316.203171 C213.464616,315.948143 212.939809,315.811056 212.465888,315.568282 C211.950195,315.299469 211.506653,314.913482 211.067668,314.532855 C210.064383,313.655192 209.060339,312.779061 208.053256,311.901399 C207.700854,311.593528 207.329463,311.274935 206.87453,311.168482 C205.939599,310.947151 205.004668,311.741337 204.713783,312.66495 C204.42214,313.587798 204.59986,314.585699 204.780618,315.53918 C204.997073,316.68106 204.982642,317.911779 204.874795,319.069742 C204.766948,320.227706 204.334039,321.396391 203.471259,322.168366 C202.586455,322.960254 201.37431,323.236725 200.217608,323.483328 C190.76273,325.474535 180.971398,326.998574 171.477026,325.200361 C171.347153,322.806318 171.117028,320.456694 170.986396,318.064949 C170.892219,316.339492 170.798043,314.60025 170.373488,312.927636 C169.943617,311.230515 169.178053,309.61917 168.135274,308.22073 C167.824643,307.801045 167.441861,307.372936 166.926168,307.286395 C166.360348,307.194493 165.816554,307.552144 165.411747,307.960342 C164.293779,309.087671 163.661124,310.709738 162.632017,311.876126 C162.291006,312.25905 161.908224,312.592194 161.451011,312.843393 C159.509758,312.566921 157.817616,311.297144 156.60851,309.744769 C156.269778,309.311299 155.964463,308.855619 155.684971,308.386153 C154.955102,307.16922 154.383966,305.851194 153.820425,304.545422 C153.351821,303.460215 152.874862,302.307613 153.029797,301.13663 C153.205239,299.813243 154.150803,298.741821 155.082696,297.791403 C161.817085,290.927867 170.387159,285.64734 179.82305,284 C179.992416,285.288923 180.289377,286.438462 180.747348,287.655396 C181.202282,288.871563 181.948101,290.012678 183.029613,290.720322 C183.850621,291.260245 184.815931,291.520634 185.772887,291.722052 C187.667053,292.121825 189.728306,292.29797 191.459181,291.427966 C192.299176,291.005984 193.00626,290.362671 193.672332,289.697148 C195.017387,288.349255 196.259911,286.808367 196.780921,284.97033 C199.524195,285.916153 202.314558,286.827513 205.057832,287.773336 C206.740859,288.351552 208.452748,288.947382 209.908688,289.978981 C211.270452,290.941652 212.355002,292.250488 213.387148,293.567747 C216.845861,297.981333 219.927108,302.685176 223,307.38136" id="Fill-31" fill="#C35D5C"></path>
                <path d="M173.29122,301.398761 L194.460251,300.003732 C195.421408,299.940921 196.253192,300.678371 196.323205,301.657761 L197.994384,324.927378 C198.076574,326.06806 197.247072,327.065285 196.129908,327.171522 L176.864925,328.992271 C175.918989,329.081448 175.075028,328.388974 174.960116,327.42897 L172.010439,302.972143 C171.91379,302.170331 172.499769,301.449941 173.29122,301.398761" id="Fill-32" fill="#EBEAE7"></path>
                <path d="M190.468641,292.126434 C191.514764,291.35723 192.244855,290.243129 192.883978,289.118129 C194.919763,285.534478 196.26153,281.612159 197.59075,277.716311 C197.863652,276.917522 198.138906,276.061899 197.921683,275.24676 C197.809542,274.824788 197.573498,274.447971 197.406463,274.045463 C196.497575,271.856967 197.685638,269.10714 196.419155,267.101603 C195.902366,266.281794 195.032688,265.725133 194.108116,265.420721 C193.182759,265.11553 192.197803,265.04079 191.223826,265.012762 C188.58656,264.938022 185.939883,265.191828 183.365352,265.767174 C181.760094,266.125306 180.092099,266.664839 179.023234,267.906621 C178.002989,269.091569 177.701856,270.709389 177.43758,272.246241 C177.051754,274.495463 176.674553,276.864581 177.460322,279.008699 C177.868106,280.122021 178.569182,281.106882 179.047544,282.192955 C179.474933,283.159132 179.720388,284.194599 180.100725,285.179461 C180.910805,287.278423 182.307466,289.093994 183.68609,290.877645 C184.449117,291.864842 185.382316,292.834912 186.700557,292.959479 C188.04703,293.085604 189.353508,292.946244 190.468641,292.126434" id="Fill-33" fill="#FFB381"></path>
                <path d="M196.564724,280.318356 C196.915922,279.238502 197.265565,278.157866 197.615986,277.078011 C197.788477,276.547844 197.961745,276.01143 197.993601,275.454715 C198.053429,274.424832 197.675037,273.461318 197.635411,272.437681 C197.52741,268.97871 197.759728,264.791247 194.499495,262.636223 C193.317699,261.854636 191.919901,261.497807 190.536866,261.288551 C189.043499,261.062898 187.649586,260.864574 186.129025,261.119897 C184.579714,261.380686 182.850144,261.287771 181.43059,262.068577 C180.381659,262.645592 179.589133,263.616134 179.033588,264.680373 C178.479597,265.745392 178.142385,266.908793 177.824598,268.067509 C177.422896,269.531521 177.049166,271.027545 177.003324,272.55324 C176.955151,274.152331 177.436882,275.396936 178.042154,276.836742 C178.595368,278.1524 178.798938,279.585179 178.997847,281 C179.47647,279.461812 178.743772,277.704998 179.359145,276.217563 C179.624875,275.57496 180.116707,275.055724 180.449257,274.446695 C180.911563,273.602644 181.04909,272.624294 181.270531,271.686545 C181.391741,271.175898 181.605412,270.598102 182.102683,270.435694 C182.634918,270.263136 183.164046,270.661347 183.620137,270.987724 C186.056765,272.72736 189.537662,272.83433 192.074522,271.247732 C192.44359,271.017395 192.797119,270.753482 193.205036,270.603568 C193.612954,270.454434 194.09857,270.437256 194.45443,270.687895 C194.7559,270.901055 194.911298,271.263349 195.041054,271.610026 C195.592714,273.086531 195.947797,274.636431 196.098532,276.205851 C196.236836,277.643315 195.934588,279.00426 196.564724,280.318356" id="Fill-34" fill="#2A1907"></path>
                <path d="M228.773104,318.910029 C228.556592,319.477815 227.777454,319.766458 227.239223,319.987142 C221.79669,322.229789 215.729778,323.056258 209.849647,322.359861 C208.741928,322.226866 207.60829,322.042719 206.520393,322.288248 C205.80758,322.446088 205.155757,322.781499 204.478776,323.04895 C202.026243,324.017183 199.295447,324.084412 196.647749,323.94484 C194.927088,323.854228 193.103508,323.645966 191.753357,322.619274 C189.781877,321.119061 189.486842,318.117174 190.798112,316.056482 C192.112431,313.999444 194.712101,312.888716 197.229434,312.891639 C198.810582,312.891639 200.352849,313.28624 201.78991,313.900063 C202.822916,314.341431 203.822378,314.906294 204.96669,315.021021 C207.837,315.314779 211.153293,314.578191 213.869604,313.75903 C213.196435,313.63115 212.675739,313.014404 212.536226,312.353083 C212.520216,312.270509 212.505731,312.185012 212.500394,312.101707 C212.444742,311.517114 212.620086,310.919367 212.886914,310.388849 C213.911535,308.336195 216.286306,307.066166 218.661077,307.002591 C219.892298,306.970438 221.100649,307.239351 222.230476,307.707026 C222.890685,307.978862 223.483806,308.579532 224.00679,309.051591 C224.589237,309.574802 225.135092,310.135281 225.641303,310.724259 C226.646102,311.896369 227.495378,313.188321 228.160924,314.562115 C228.508563,315.283357 228.809698,316.032368 228.934726,316.817184 C229.049081,317.508466 229.023922,318.247246 228.773104,318.910029" id="Fill-35" fill="#FFB381"></path>
                <path d="M162.868572,310.479345 C162.828272,310.688993 162.777714,310.903598 162.702243,311.105455 C162.373249,311.45959 162.003956,311.767688 161.562855,312 C159.690007,311.744315 158.057494,310.570003 156.890995,309.13434 C156.564199,308.73346 156.269643,308.312039 156,307.87787 C156.219085,306.826797 156.497521,305.728271 157.299856,304.998045 C157.832547,304.515005 158.530835,304.263569 159.240114,304.147413 C159.745695,304.064545 160.762718,303.85773 161.211879,304.155204 C161.712331,304.488799 162.081625,305.386177 162.314631,305.906047 C162.617247,306.581736 162.823143,307.294964 162.924992,308.022357 C163.04003,308.836867 163.02391,309.669792 162.868572,310.479345" id="Fill-36" fill="#9C4132"></path>
                <path d="M220,313.567889 C218.101906,313.567889 216.16725,313.812486 214.275379,313.956781 C213.926099,313.982297 213.65072,314.011332 213.397122,313.995495 C212.710229,313.841521 212.178919,313.09893 212.036562,312.302668 C212.020226,312.203245 212.005445,312.100303 212,312 C214.667445,312.52087 217.332555,313.044379 220,313.567889" id="Fill-37" fill="#F1A482"></path>
                <path d="M156.372901,344.446915 C153.692175,345.244344 151.376693,347.179126 150.389854,349.659066 C150.074519,350.451507 149.892275,351.315923 150.069225,352.14542 C150.318015,353.31199 151.289731,354.287576 152.468645,354.71729 C153.646803,355.147716 154.997375,355.064339 156.168727,354.618235 C157.197914,354.225578 158.088716,353.575662 158.965151,352.932873 C160.311185,351.945885 161.65722,350.960322 163.003254,349.974047 C163.725424,349.444566 164.480111,348.874464 164.805276,348.068484 C165.110025,347.313099 165.069946,345.965522 164.593541,345.259309 C164.210904,344.692771 163.068287,344.511764 162.423249,344.353561 C160.447301,343.868975 158.326919,343.866124 156.372901,344.446915" id="Fill-38" fill="#F0E8D6"></path>
                <path d="M158.285589,344.705622 C155.584681,345.378739 152.998105,346.852319 151.665271,349.13655 C150.864944,350.509709 150.640194,352.392253 151.821108,353.503442 C152.63788,354.272615 153.882224,354.455266 155.038078,354.573152 C160.669342,355.148758 166.369519,355.142209 172,354.553504 C171.95693,352.353686 171.900546,350.091285 170.974924,348.064657 C170.24116,346.457181 168.514427,344.085626 166.461925,344.022317 C163.808786,343.940815 160.862767,344.063796 158.285589,344.705622" id="Fill-39" fill="#FCAD51"></path>
                <path d="M188.751836,353.599073 C191.522819,353.300343 194.319352,352.996332 196.95407,352.109194 C201.181387,350.686454 204.728927,347.861341 208.592354,345.666127 C211.426824,344.055549 214.447885,342.778402 217.298614,341.195735 C220.150118,339.613069 222.87697,337.678866 224.754487,335.056679 C226.632004,332.436 227.567279,329.03455 226.635101,325.970302 C225.337485,321.701327 219.765324,317.919674 215.176439,319.282819 C213.779721,319.698477 212.525462,320.469442 211.293656,321.234372 C208.682939,322.854003 206.072997,324.487967 203.666678,326.383696 C201.243326,328.294513 199.033662,330.464834 196.487207,332.216479 C192.391509,335.034048 187.595904,336.650661 182.804171,337.946667 C178.101474,339.220042 173.620208,340.950565 169.831107,344.085723 C169.026678,344.751831 168.233862,345.546182 168.044175,346.557791 C167.852939,347.579962 168.315931,348.601377 168.792859,349.531515 C169.562448,351.035727 170.38933,353.242257 171.606425,354.447739 C172.600542,355.431436 175.098995,354.818888 176.489519,354.732136 C180.588313,354.478668 184.670849,354.03887 188.751836,353.599073" id="Fill-40" fill="#78829F"></path>
                <path d="M211.322717,343.131469 C212.663841,343.504002 213.599068,344.644658 214.309387,345.788197 C215.030307,346.95119 215.624006,348.202093 215.874662,349.530817 C216.126075,350.859541 216.016271,352.273292 215.39001,353.484564 C214.763748,354.696556 213.585437,355.675806 212.195091,355.942415 C211.605936,356.054823 210.941811,356.023839 210.480634,355.657792 C210.178484,355.417843 210.003554,355.065486 209.843771,354.723938 C208.980484,352.870642 208.29667,350.941686 207.802173,348.969496 C207.555303,347.983762 207.355384,346.987219 207.204688,345.984191 C207.125932,345.466103 207.057778,344.945134 207.008555,344.424165 C206.949488,343.79511 207.194843,343.801596 207.7893,343.572456 C208.897184,343.146601 210.135319,342.80145 211.322717,343.131469" id="Fill-41" fill="#F0E8D6"></path>
                <path d="M196.888077,346.642041 C197.911384,346.49802 198.955341,346.495746 199.966411,346.280472 C201.322407,345.990912 202.562154,345.329929 203.84014,344.793259 C205.116597,344.257348 206.509304,343.835137 207.877538,344.063298 C209.885911,344.399095 211.430049,346.090969 212.223151,347.950364 C212.989484,349.746085 213.196745,351.772241 212.809755,353.683938 C212.545898,354.987712 211.880519,356.365771 210.619358,356.819818 C209.992219,357.045704 209.305426,357.010078 208.640047,356.971419 C205.253497,356.775095 201.866183,356.578013 198.479633,356.381689 C197.046392,356.298308 195.499959,356.171721 194.414703,355.23937 C193.175721,354.175127 192.914159,352.368035 193.021996,350.746656 C193.18184,348.34377 194.491183,346.978597 196.888077,346.642041" id="Fill-42" fill="#FCAD51"></path>
                <path d="M190.341267,342.707839 C188.646429,341.670668 186.946925,340.629723 185.395982,339.397799 C182.767,337.307606 180.617925,334.710904 178.143727,332.448603 C176.734344,331.160066 175.215291,329.975698 173.947468,328.555061 C172.482084,326.911741 171.386156,324.986861 169.968217,323.305044 C167.470685,320.342992 164.016453,318.211281 160.290766,316.958222 C157.839902,316.13392 155.170475,315.674213 152.650387,316.271304 C148.527242,317.248086 145.468134,321.112944 145.054342,325.213317 C144.639772,329.31369 146.633286,333.452561 149.802064,336.193439 C153.43597,339.335901 158.290252,340.695395 162.701962,342.689722 C168.154376,345.155834 173.033547,348.659117 178.299288,351.482275 C183.565806,354.303923 189.487237,356.478661 195.474003,355.908745 C196.279809,355.83175 197.169618,355.655114 197.637079,355.013487 C197.995647,354.521321 198.012758,353.875165 197.995647,353.272791 C197.947423,351.55776 198.032204,347.962385 196.811827,346.648937 C196.110247,345.894082 194.64564,345.343038 193.750386,344.794259 C192.614013,344.098282 191.47764,343.403815 190.341267,342.707839" id="Fill-43" fill="#909CBF"></path>
                <path d="M178.90529,323.116025 C179.824733,323.398887 181.292614,323.759728 181.745806,324.688587 C182.184404,325.586866 182.020026,326.719845 181.523051,327.560023 C180.898568,328.613494 179.832414,329.326766 178.750898,329.908545 C176.464966,331.139379 173.917873,331.95127 171.318547,331.997905 C168.719989,332.045303 166.070736,331.28922 164.046733,329.666201 C162.818506,328.681534 161.842223,327.42165 160.585575,326.471385 C159.29052,325.491305 157.622927,324.860598 156.119712,324.267351 C151.065467,322.269731 145.653278,320.153615 142.550832,315.708852 C141.626013,314.382457 140.931631,312.819833 141.00537,311.208282 C141.072965,309.752688 141.761203,308.38501 142.64992,307.226038 C144.139309,305.283462 146.178674,303.841628 148.184241,302.431138 C148.995378,301.860827 149.808819,301.28975 150.671421,300.798181 C151.090815,300.558895 151.502529,300.334899 151.909634,300.080322 C152.349,299.807398 152.80296,299.556645 153.268442,299.32959 C153.536517,299.198862 153.813041,299.075014 154.108,299.025322 C154.638772,298.935876 155.180298,299.09642 155.676505,299.302833 C156.768007,299.754648 157.828784,300.108609 158.744386,300.88304 C159.626958,301.62995 160.342848,302.548106 161.043375,303.458617 C161.665555,304.268215 162.318458,305.312512 161.878324,306.231433 C161.65941,306.6886 161.214667,306.987516 160.789895,307.265027 C158.944097,308.470633 157.103676,309.686177 155.058935,310.541644 C155.247893,310.999576 155.437619,311.458271 155.626577,311.917732 C155.852405,312.46358 156.085914,313.022424 156.491483,313.452834 C156.835602,313.81979 157.27804,314.069015 157.692058,314.348055 C158.133728,314.646972 158.433296,315.075852 158.8573,315.372476 C159.981062,316.15761 161.12326,316.915222 162.285429,317.642255 C163.566657,318.443444 164.945437,319.677336 166.34726,320.233886 C168.232232,320.981561 170.619556,321.01214 172.608992,321.453253 C174.72901,321.92418 176.830592,322.476144 178.90529,323.116025" id="Fill-44" fill="#FFB381"></path>
                <path d="M199.153813,354.081152 C199.070522,354.262284 198.977031,354.451229 199.005078,354.643727 C199.033125,354.836934 199.235404,355.027301 199.46488,354.996757 C199.638261,354.973316 199.754699,354.839776 199.847339,354.715469 C201.128154,352.991518 201.35933,350.753294 200.451625,348.872361 C200.331788,348.622328 200.185604,348.370874 199.93828,348.198976 C199.779347,348.088876 199.290648,347.89993 199.098569,348.064725 C198.919238,348.217444 199.172511,348.540641 199.243053,348.707566 C199.488677,349.28861 199.645061,349.897356 199.717303,350.511784 C199.860088,351.71649 199.673108,352.949609 199.153813,354.081152" id="Fill-45" fill="#332D29"></path>
                <path d="M201.620773,354.999987 C201.917933,354.997003 202.189404,354.794845 202.360896,354.534502 C202.533082,354.274159 202.621257,353.962344 202.694159,353.652767 C203.169059,351.638651 203.119069,349.447741 202.344927,347.543283 C202.23245,347.267274 202.026938,346.951729 201.751302,347.006185 C201.498577,347.056165 201.395126,347.380661 201.363189,347.654432 C201.229189,348.802478 201.501354,349.954254 201.617996,351.105284 C201.694369,351.863188 201.695758,352.658391 201.475665,353.390932 C201.380546,353.707969 201.054226,354.069764 201.005625,354.369643 C200.949387,354.719503 201.326391,355.002225 201.620773,354.999987" id="Fill-46" fill="#332D29"></path>
                <path d="M206.687988,348.926319 C206.857584,349.885555 207.027181,350.851551 206.996345,351.820552 C206.964602,352.790303 206.721544,353.772825 206.11662,354.603612 C205.93614,354.851495 205.574274,355.110647 205.283148,354.950649 C205.046438,354.819947 205.089064,354.526993 205.15255,354.297137 C205.787403,352.006089 205.765636,349.59185 205.089064,347.308314 C204.940327,346.807288 204.851448,345.491249 205.90077,346.210113 C206.284402,346.471518 206.298006,346.932732 206.380537,347.309816 C206.497532,347.846898 206.591853,348.386233 206.687988,348.926319" id="Fill-47" fill="#332D29"></path>
                <path d="M165.98496,348.650892 C165.966597,348.370399 165.852011,348.013535 165.553796,348.000343 C165.386325,347.992706 165.237217,348.113512 165.163765,348.256536 C165.091782,348.399559 165.079295,348.562023 165.061666,348.719626 C164.900806,350.211652 164.244878,351.63286 163.321585,352.852725 C163.103432,353.140161 162.866916,353.531739 163.089476,353.815009 C163.33701,354.128827 164.003955,353.98997 164.289684,353.791403 C164.730397,353.484528 165.058728,352.713173 165.277616,352.254249 C165.814551,351.130196 166.066492,349.883254 165.98496,348.650892" id="Fill-48" fill="#332D29"></path>
                <path d="M162.936548,348.345355 C162.911814,348.165439 162.754909,347.926704 162.580999,348.021506 C162.500614,348.065101 162.482064,348.161287 162.47047,348.245017 C162.224678,350.030335 161.450973,351.755451 160.249837,353.198237 C160.155539,353.312414 160.055831,353.428667 160.015638,353.56568 C159.975446,353.703385 160.011001,353.869461 160.142399,353.949039 C160.25602,354.017546 160.405196,354.00509 160.538913,353.980179 C161.770967,353.75044 162.197625,352.708312 162.556266,351.736767 C162.956644,350.649661 163.093453,349.482976 162.936548,348.345355" id="Fill-49" fill="#332D29"></path>
                <path d="M166.643073,351.162482 C166.815102,351.883029 166.652549,352.678089 166.213728,353.268236 C166.082519,353.444833 165.920694,353.681041 166.043885,353.864345 C166.113134,353.967173 166.247259,353.999214 166.369721,353.999959 C166.775011,354.003685 167.151872,353.750339 167.390964,353.415028 C167.629327,353.080462 167.748873,352.672873 167.832701,352.267519 C168.099493,350.982159 168.04628,349.627503 167.679624,348.368223 C167.622038,348.168527 167.452195,347.924122 167.272876,348.02248 C167.174469,348.076875 167.150414,348.208764 167.138022,348.322025 C167.000253,349.53287 166.862483,350.743716 166.725443,351.954562 L166.643073,351.162482" id="Fill-50" fill="#332D29"></path>
                <path d="M278.133737,215 L270,215 L270,209 L278.133737,209 C279.716631,209 281,210.34325 281,212 C281,213.65675 279.716631,215 278.133737,215" id="Fill-51" fill="#7C7C83"></path>
                <path d="M325.949534,215 L292.050466,215 C290.365846,215 289,213.65675 289,212 C289,210.34325 290.365846,209 292.050466,209 L325.949534,209 C327.634154,209 329,210.34325 329,212 C329,213.65675 327.634154,215 325.949534,215" id="Fill-52" fill="#919197"></path>
                <path d="M303.798432,234 L287,234 L287,228 L303.798432,228 C305.566856,228 307,229.34325 307,231 C307,232.656 305.566856,234 303.798432,234" id="Fill-53" fill="#919197"></path>
                <path d="M287,234 L268.046543,234 C267.679321,234 267.326851,233.93775 267,233.82525 C267.807422,231.975 268.416094,230.02575 268.800396,228 L287,228 L287,234" id="Fill-54" fill="#7C7C83"></path>
                <path d="M314.977308,254 L284,254 C284.984642,252.1145 285.760718,250.1045 286.298002,248 L314.977308,248 C316.646589,248 318,249.34325 318,251 C318,252.65675 316.646589,254 314.977308,254" id="Fill-55" fill="#919197"></path>
                <path d="M283.779786,254 L272.920374,254 C271.307598,254 270,252.65675 270,251 C270,249.34325 271.307598,248 272.920374,248 L286,248 C285.480903,250.1045 284.731097,252.1145 283.779786,254" id="Fill-56" fill="#7C7C83"></path>
                <path d="M241.369983,84 L86.6307786,84 C70.8185692,84 58,96.8495519 58,112.701685 L58,222.722012 C58,238.573382 70.8185692,251.422933 86.6307786,251.422933 L93.1063347,251.422933 L93.1063347,286.656684 C93.1063347,293.464419 100.81134,297.396335 106.301965,293.391111 L163.836226,251.422933 L241.369983,251.422933 C257.182193,251.422933 270,238.573382 270,222.722012 L270,112.701685 C270,96.8495519 257.182193,84 241.369983,84" id="Fill-57" fill="#F2F6FA"></path>
                <polyline id="Fill-58" fill="#FFFFFF" points="92 251.5 126 251.5 92 251.5"></polyline>
                <path d="M116.842462,33.8393543 C118.02149,35.8744681 119.389454,37.8023105 120.371488,39.9553468 C120.84969,41.0029549 121.231958,42.1038184 121.419431,43.2488076 C121.552712,44.0658963 121.564429,44.2150112 122.277704,43.7029994 C122.832067,43.3051061 123.387161,42.9079736 123.941524,42.5108411 C124.381645,42.1951132 124.855453,41.8291731 124.972623,41.2867297 C125.087597,40.7541765 124.820302,40.2201018 124.545684,39.7544982 C123.412792,37.8327421 122.009677,36.1057483 120.588254,34.4107077 C119.124356,32.6646942 118.046388,30.4797047 116.851983,28.5252346 C116.422114,27.8222645 116.089643,27.0531056 115.680279,26.3364412 C115.142759,25.3953437 114.584735,24.5326076 114.249335,23.4804347 C114.186356,23.2811077 114.096281,23.0467843 113.898556,23.0057016 C113.738911,22.9729877 113.58659,23.0863454 113.476743,23.2103542 C113.048338,23.6949776 112.929703,24.4124027 113.037354,25.060596 C113.133287,25.6327102 113.425481,26.0617959 113.630529,26.5829372 C113.770401,26.9412694 113.834845,27.3285116 113.969591,27.6967341 C114.285951,28.5640349 114.651376,29.412316 115.035109,30.2499461 C115.592401,31.4656888 116.173127,32.6852355 116.842462,33.8393543" id="Fill-59" fill="#DF8D0D"></path>
                <path d="M107,42.9750503 C109.010554,43.685997 110.704712,45.1093918 112.557068,46.1912019 C113.233005,46.5860888 113.955683,46.9426882 114.728696,46.994489 C115.50171,47.0462898 116.338722,46.733233 116.741408,46.0418055 C117.119645,45.3939206 117.04558,44.549343 116.759385,43.8511588 C116.47319,43.1537254 116.002191,42.5606442 115.582966,41.9397859 C114.64744,40.5554293 113.958559,39.0096646 113.275431,37.4729087 C112.572888,35.8933609 111.986117,34.1328858 111.126813,32.6419248 C110.050347,30.7748453 110.04819,33.4895054 109.978439,34.3490977 C109.728917,37.4293661 108.701349,40.442819 107,42.9750503" id="Fill-60" fill="#FFB381"></path>
                <path d="M120.986832,45.9031741 C119.799142,47.4304074 117.397021,47.2511474 115.908508,46.0519052 C114.419995,44.852663 113.62523,42.9520364 112.906971,41.1281238 C111.38429,37.2618986 109.912118,33.3040863 109.265165,29.1544893 C108.962857,27.2170713 108.38721,18.5664022 111.145861,23.50036 C113.072609,26.9462242 114.05678,31.3831071 115.669336,35.0442399 C116.143223,36.1198005 121.293597,45.510211 120.986832,45.9031741" id="Fill-61" fill="#DF8D0D"></path>
                <path d="M111.309279,22.7882965 C111.889507,23.2086752 112.392224,23.7763399 112.77609,24.3915657 C113.710657,25.8889731 114.073853,27.5482416 114.631936,29.1906337 C115.18928,30.8322586 116.109082,32.3143237 117.054721,33.7396224 C118.218131,35.493246 119.460529,37.222322 120.231952,39.1968745 C120.807751,40.6728027 121.322279,42.8145863 120.751648,44.3794998 C120.022302,46.3786 118.701655,42.9764474 118.294166,42.1870867 C116.604417,38.9153435 115.15606,35.5185608 113.603617,32.175476 C112.735489,30.3067852 111.76106,28.4917924 110.685496,26.7443057 C110.245527,26.029355 109.786364,25.3205413 109.469674,24.5388517 C109.291029,24.1000622 108.73959,22.5374501 109.146341,22.1124687 C109.544233,21.6982269 110.969705,22.543587 111.309279,22.7882965" id="Fill-62" fill="#655B5A"></path>
                <polyline id="Fill-63" fill="#D7D6D4" points="244 54 231.803077 55.8968348 221 84 235.113845 80.207846 244 54"></polyline>
                <polyline id="Fill-64" fill="#E8E7E5" points="232.407727 55 231 54.4386181 242.96495 53 244 53.4558914 232.407727 55"></polyline>
                <polyline id="Fill-65" fill="#F2F1EF" points="231.585568 55 221 84 222.683569 84 233 55.6945834 231.585568 55"></polyline>
                <polyline id="Fill-66" fill="#565654" points="236 80 236 82.4347494 222 87 222 83.8252703 236 80"></polyline>
                <path d="M221,87 L192.290189,86.2480456 C191.57108,86.2289671 191,85.7316114 191,85.1243901 C191,84.4980903 191.604581,83.9928401 192.346284,84.0000768 L221,84.2678331 L221,87" id="Fill-67" fill="#565654"></path>
                <polyline id="Fill-68" fill="#AFB3B9" points="222 80.5686245 209.285775 80 193 84.0477974 220.483399 85 222 80.5686245"></polyline>
                <path d="M194.113496,55.1940181 C194.418724,56.2419923 194.941004,57.2450315 194.995267,58.3364174 C195.063096,59.7080755 194.381042,61.0096655 194.283821,62.3790388 C194.191122,63.6859601 194.634268,64.9631786 194.809115,66.2617222 C195.078922,68.259423 194.711141,70.2822569 194.344866,72.2647255 C194.167758,73.2228298 193.990651,74.1809341 193.813543,75.1382768 C193.706524,75.7178613 193.567099,76.3515201 193.102096,76.70643 C192.614484,77.0796185 191.937706,77.0194514 191.331771,76.9417672 C190.232948,76.8001079 189.082877,76.64017 188.182264,75.987471 C187.13469,75.2289083 186.613917,73.9463585 186.144392,72.7323535 C185.089281,70.0035079 184.025127,67.2396283 183.673925,64.3318046 C183.52621,63.1109452 183.493803,61.8322034 182.926304,60.7446256 C182.572841,60.0660318 182.007603,59.4415123 182.000067,58.6753335 C181.994038,58.0249193 182.396487,57.4521892 182.781603,56.9312486 C184.250468,54.9434487 185.719333,52.9556488 187.188199,50.967849 C187.691637,50.2862088 188.229744,49.5763891 189.000729,49.2336649 C189.710668,48.9183588 190.529133,48.9602473 191.285798,49.1354174 C192.440391,49.4035038 193.900212,50.172729 194.307937,51.3935885 C194.572469,52.1879468 194.23408,52.2747703 194.01326,53.0287633 C193.809021,53.7248741 193.913778,54.5100931 194.113496,55.1940181" id="Fill-69" fill="#5D4043"></path>
                <path d="M185.23481,58.0571289 C184.961166,58.7390459 184.733384,59.4529992 184.296165,60.0433836 C183.858182,60.6330053 183.146555,61.0883794 182.418112,60.9854053 C181.203531,60.8137819 180.712806,59.3576528 180.475852,58.1570519 C180.112013,56.3149609 179.748174,54.4728698 179.385099,52.6307788 C178.943294,50.3897588 178.585569,47.7955759 180.071501,46.0579845 C181.064416,44.8970476 182.645894,44.4409108 184.153229,44.1792804 C185.340293,43.9733324 186.603794,43.8596796 187.715185,44.3226813 C188.913715,44.8222961 189.768279,45.9374667 190.241423,47.1441698 C190.606026,48.07475 191.122739,49.6491085 190.973688,50.658254 C190.836101,51.5911225 189.756813,52.0129346 189.07041,52.6231511 C187.398737,54.109791 186.067971,55.9816301 185.23481,58.0571289" id="Fill-70" fill="#E8935F"></path>
                <path d="M214.142849,76.2971408 C216.200052,76.8872738 217.956114,78.392701 218.808036,80.2973156 C218.970409,80.6605276 219.098448,81.0943065 218.896018,81.4381471 C218.661399,81.8380263 218.110618,81.9182788 217.636374,81.9438766 C215.941113,82.0379658 214.238699,82.0137517 212.547015,81.8712342 C211.541303,81.7868307 210.488381,81.6415459 209.681523,81.054872 C208.963362,80.5325386 208.567086,79.7445415 208.304571,78.9337139 C208.002714,77.9969729 207.700142,77.3853931 208.587114,76.8416128 C210.146468,75.8861923 212.419691,75.8031724 214.142849,76.2971408" id="Fill-71" fill="#E8935F"></path>
                <path d="M187.882682,73.1653544 C188.230187,73.9239776 188.624442,74.6898335 189.257119,75.2178159 C190.235743,76.0334966 191.586806,76.1283245 192.844369,76.1885965 C196.57031,76.3653943 200.29703,76.5421921 204.02297,76.7197935 C204.693047,76.7519385 205.466753,76.8419447 205.832179,77.4221629 C206.232667,78.0586349 205.867241,78.9643217 205.254042,79.3838147 C204.641623,79.802504 203.870255,79.8651868 203.136287,79.914208 C199.859921,80.1368125 196.583556,80.3578097 193.306411,80.5796106 C187.862424,80.9484751 182.374803,81.3157323 176.969774,80.5538945 C176.108024,80.432547 175.036679,80.0500209 175.000838,79.1539775 C174.986034,78.7843094 175.169916,78.4419646 175.348343,78.1213177 C177.416233,74.3989207 179.484122,70.6773274 181.55279,66.955734 C182.011715,66.1296062 183.626913,62.0704897 184.542425,62.0005742 C185.284964,61.9443204 185.552216,66.0379928 185.737656,66.8464408 C186.236318,69.0218572 186.954703,71.1442342 187.882682,73.1653544" id="Fill-72" fill="#A84060"></path>
                <path d="M209.422411,77.2201626 C208.612043,76.6356813 207.716213,76.1019576 206.724238,76.0135164 C205.381256,75.8935439 204.122974,76.5979977 202.872322,77.1063426 C200.473268,78.0807345 198.121524,78.0838107 195.582831,78.0953465 C195.343231,78.0961156 195.092185,78.0999608 194.882344,78.2168571 C194.573305,78.3883562 194.433666,78.7559642 194.338283,79.0989624 C194.055189,80.1141142 193.948361,81.1784854 194.023141,82.2305517 C194.06053,82.7558159 194.168885,83.3272233 194.570253,83.6648381 C194.91897,83.9593859 195.408091,84.0062982 195.862873,83.9993768 C196.615248,83.9878409 197.293606,83.8071132 198.021564,83.6540714 C198.641167,83.5233321 199.233299,83.4864175 199.855192,83.2979992 C201.347733,82.8442571 202.864692,82.2705426 204.450326,82.3797483 C205.892505,82.4789563 207.23625,83.1411121 208.657827,83.4072049 C209.725345,83.60639 214.304455,83.6033138 213.98397,81.8898607 C213.841279,81.1223444 212.538739,80.0187514 212.015281,79.474261 C211.220175,78.6467585 210.351815,77.890778 209.422411,77.2201626" id="Fill-73" fill="#FFB381"></path>
                <path d="M86.0094526,76.5519977 C86.1484327,78.6924331 87.9139381,80.4434207 89.9016589,81.2360614 C91.8954887,82.0348111 94.0985522,82.0561925 96.2389984,82.0913192 C107.580385,82.2440438 118.914899,82.8205792 130.214286,83.8071802 C132.723564,84.0301581 135.342804,84.2523724 137.671102,83.2863893 C140.033764,82.2990247 141.736652,80.2143338 143.341796,78.2136414 C144.843086,76.3374196 146.364231,74.4184349 147.261493,72.187892 C148.067119,70.1795635 148.317589,67.830659 147.483708,65.79484 C146.781935,64.0644702 144.697233,63.3413192 143.070708,62.5914414 C138.894433,60.6663477 134.293581,59.6446201 129.68662,59.6514927 C123.487497,59.6583653 117.302119,61.5277145 112.139237,64.9609636 C114.327792,58.9917224 117.031795,53.2301865 120.214592,47.7405005 C118.310106,47.8932251 116.385003,47.6152664 114.585134,46.961605 C111.569572,45.878024 108.922077,43.7727152 107.31617,41 C100.832214,51.1943675 94.3421492,61.3887351 87.8581933,71.5831026 C86.8922053,73.0981307 85.8918541,74.7521382 86.0094526,76.5519977" id="Fill-74" fill="#0C3983"></path>
                <path d="M183.904495,61.2531074 C181.596056,59.8901149 180.726996,57.0688958 180.146589,54.4861431 C179.566957,51.9026286 178.963271,49.084457 176.893047,47.3915731 C174.777818,45.6621193 171.589455,45.645358 169.094789,46.7874071 C166.600122,47.9294561 164.701382,50.0413706 163.161129,52.2805181 C161.620876,54.5204275 160.361516,56.9447103 158.710302,59.1069085 C157.059089,61.2691067 154.924462,63.2065521 152.285469,63.9745211 C149.795458,64.6983013 147.113788,64.3166024 144.548511,64.7158244 C140.218732,65.3908447 136.36228,68.4627204 134.796421,72.4823672 C133.230561,76.502776 134.015819,81.3170573 136.781291,84.6563508 C150.610977,85.8768728 164.771993,83.7870526 177.894793,79.3285664 C179.398577,78.8181108 180.937278,78.242896 182.07947,77.1541782 C183.624379,75.6829996 184.204011,73.516992 184.719239,71.4652655 C185.363274,68.9007979 186.007309,66.3370921 186.651344,63.7733863 C186.857746,62.9505625 187.0657,62.1086918 186.980346,61.2660592 C186.895767,60.4234267 186.45891,59.5647947 185.681412,59.1968096 C185.402847,60.1430571 184.744845,60.7152244 183.904495,61.2531074" id="Fill-75" fill="#C84C73"></path>
                <path d="M101,72 C102.74165,71.3916255 104.442123,70.657541 106.080067,69.8031784 C107.551014,69.0333985 108.973158,68.1650681 110.3404,67.218363 C111.166235,66.6394761 112.159067,66.0248937 112.936099,65.2908092 C115.121549,59.2249123 117.821717,53.3700841 121,47.7915076 C119.098216,47.9467052 117.175843,47.6642456 115.378527,47 C114.281989,48.0879349 113.567485,49.5359282 112.929236,50.9621939 C111.270703,54.6838315 109.875248,58.5257473 108.077932,62.1829779 C106.288242,65.8417606 104.053226,69.3437936 101,72" id="Fill-76" fill="#092657"></path>
                <path d="M196.17669,78.2621321 C194.616265,77.2642458 192.576303,77.6730915 190.740645,77.975183 C187.62288,78.4885114 184.434186,78.5846659 181.290207,78.2598607 C180.247097,78.1515923 179.119952,77.9532265 178.415294,77.1908051 C177.836303,76.5646655 177.662837,75.6848902 177.512499,74.8520565 C176.601223,69.8179552 175.687635,64.6793711 176.427757,59.6180134 C176.707616,57.7077956 177.221847,55.8195344 177.244205,53.8903887 C177.265792,51.9597287 176.708387,49.9049007 175.212723,48.6518645 C173.526632,47.2390757 171.139737,46.5728087 169.04812,47.2928313 C166.956503,48.0128539 165.355218,49.7686188 164.437003,51.750006 C163.518018,53.730636 163.210405,55.9308313 163.077799,58.1037702 C162.48416,67.7903836 165.294312,77.7253329 171.284678,85.4426731 C177.990495,86.6093974 185.012406,85.6084827 191.820761,85.4411588 C192.995706,85.4116311 194.239265,85.3889174 195.234576,84.7771632 C196.243764,84.1563235 196.825839,83.0054987 196.976947,81.8455885 C197.128056,80.6856782 196.498952,79.3872147 196.17669,78.2621321" id="Fill-77" fill="#DB5881"></path>
                <path d="M183.954636,49.6792079 C183.070747,48.2043914 182.962902,46.3739778 183.008809,44.6355027 C183.064189,42.5072385 183.313398,40.3842929 183.751335,38.3038975 C184.069768,36.7910899 184.512077,35.2509286 185.468106,34.0648449 C187.324784,31.7603017 190.850869,31.4161019 193.375018,32.8757219 C195.898439,34.3361017 197.438869,37.2515426 197.859318,40.229289 C198.279767,43.2070355 197.706295,46.2478472 196.821677,49.1123799 C196.380825,50.5400874 195.827757,51.9959083 194.77117,53.0140711 C192.771671,54.9409823 191.393736,53.5596241 189.373105,52.9228924 C187.303652,52.2702044 185.186106,51.7330095 183.954636,49.6792079" id="Fill-78" fill="#FFB381"></path>
                <path d="M194.323208,29.984875 C198.089898,32.2182816 200.644465,36.2444599 200.989104,40.4905778 C201.036992,41.0861528 200.944356,41.8381798 200.359491,42.0407358 C199.934776,42.1888737 199.453538,41.9349229 199.195255,41.5781825 C198.936187,41.2214421 198.841195,40.7830747 198.715587,40.365114 C197.7484,37.1408458 194.509266,34.6761625 191.026764,34.5159317 C190.985942,36.3873072 190.107466,38.2284505 188.659041,39.4777978 C187.210615,40.7263892 185.213437,41.3665569 183.276708,41.2010353 C182.999584,46.9096377 183.185642,52.4980669 182.399017,58.196088 C182.178417,59.7961292 181.913854,61.4014611 181.359605,62.9259217 C180.536868,65.1895605 179.071957,67.2340156 177.16663,68.7796388 C177.088125,69.0524848 176.646139,69.0645776 176.44595,68.856731 C176.245761,68.6488844 176.22378,68.3397597 176.212004,68.0563325 C176.003179,62.8578992 175.79514,57.6594658 175.586316,52.4602766 C175.396332,47.7425359 174.537483,42.6604966 175.330388,37.9956623 C176.44281,31.4541618 181.853404,27.2488574 188.763453,28.1119878 C190.725304,28.356869 192.637696,28.9856995 194.323208,29.984875" id="Fill-79" fill="#5D4043"></path>
                <path d="M182.797211,44 C182.073249,43.5306122 181.312631,43.0181406 181.073532,42.3061224 C180.906079,41.8095238 181.028545,41.2524565 181.400939,40.8148148 C181.734178,40.4232804 182.370665,40.0272109 182.989657,40 C183.052972,40.6160242 182.806375,41.3303099 182.770552,41.9614512 C182.731396,42.6417234 182.739727,43.3227513 182.797211,44" id="Fill-80" fill="#EBBDA0"></path>
                <path d="M233.180265,67.628009 C232.786854,68.7135978 233.058758,69.759479 233.7878,69.9647595 C234.515992,70.1700399 235.426021,69.457552 235.820281,68.3727124 C236.212842,67.2871236 235.940938,66.2412424 235.212746,66.0352127 C234.483704,65.8299323 233.573676,66.5431694 233.180265,67.628009" id="Fill-81" fill="#FFFFFF"></path>
                <path d="M114.021219,23 C114.976735,23.3326063 115.61146,24.2342874 116.180655,25.0840229 C119.160738,29.5304035 122.140821,33.9775595 125.120142,38.4239402 C125.529323,39.0341061 125.951457,39.6830373 125.997175,40.4195781 C126.042132,41.156119 125.546086,41.9810447 124.821448,41.999652 C124.092239,42.0182594 123.589335,41.2871457 123.228159,40.642091 C121.512954,37.5765306 119.796987,34.5117454 118.081782,31.4469603 C117.223799,29.9141801 116.365815,28.3813998 115.507832,26.8493949 C114.889108,25.7438084 113.837583,24.3505833 114.021219,23" id="Fill-82" fill="#655B5A"></path>
                <path d="M180.917188,151 L96.0828125,151 C94.3803293,151 93,149.65675 93,148 C93,146.34325 94.3803293,145 96.0828125,145 L180.917188,145 C182.619671,145 184,146.34325 184,148 C184,149.65675 182.619671,151 180.917188,151" id="Fill-83" fill="#919197"></path>
                <path d="M232.948229,151 L197.051771,151 C195.366431,151 194,149.65675 194,148 C194,146.34325 195.366431,145 197.051771,145 L232.948229,145 C234.633569,145 236,146.34325 236,148 C236,149.65675 234.633569,151 232.948229,151" id="Fill-84" fill="#919197"></path>
                <path d="M207.95616,173 L98.0438405,173 C96.3628796,173 95,171.65675 95,170 C95,168.34325 96.3628796,167 98.0438405,167 L207.95616,167 C209.63712,167 211,168.34325 211,170 C211,171.65675 209.63712,173 207.95616,173" id="Fill-85" fill="#919197"></path>
                <path d="M133.988654,192 L98.0113463,192 C96.3483303,192 95,190.65675 95,189 C95,187.34325 96.3483303,186 98.0113463,186 L133.988654,186 C135.65167,186 137,187.34325 137,189 C137,190.65675 135.65167,192 133.988654,192" id="Fill-86" fill="#919197"></path>
                <path d="M190.97702,192 L152.023736,192 C150.353878,192 149,190.65675 149,189 C149,187.34325 150.353878,186 152.023736,186 L190.97702,186 C192.646878,186 194,187.34325 194,189 C194,190.65675 192.646878,192 190.97702,192" id="Fill-87" fill="#919197"></path>
                <path d="M274,154.692103 C277.982302,154.7902 281.964605,154.889063 285.946907,154.98716 C286.958476,155.01245 287.997233,155.033142 288.952026,154.710496 C291.184674,153.954845 292.356974,151.369078 291.903568,149.141976 C291.449361,146.914875 289.686113,145.094721 287.634987,143.960478 C286.082049,143.101366 283.916572,142.169447 282.108543,142.013872 C280.047022,141.837604 280.159774,143.369599 279.572025,144.992026 C278.927499,146.766963 278.124642,148.488254 277.176246,150.132906 C276.810802,150.766703 274.75168,154.710496 274,154.692103" id="Fill-88" fill="#FCAD51"></path>
                <path d="M337,153.452408 C334.661447,152.873209 332.672802,150.993981 331.925602,148.655567 C331.528311,147.41219 331.346796,145.895986 330.23365,145.251935 C329.199963,144.6541 327.831676,145.1923 327.054589,146.11067 C326.20023,147.122963 325.861985,148.540025 326.05079,149.863909 C326.735297,154.637642 333.489983,154.390904 337,153.452408" id="Fill-89" fill="#FCAD51"></path>
                <path d="M281.271507,106.671977 C279.272944,109.555847 278.916357,113.215883 278.621487,116.699586 C278.129275,122.494455 277.637825,128.28857 277.145613,134.083439 C276.899507,136.984641 276.745596,140.203845 278.587962,142.475072 C280.245177,144.517971 283.052918,145.19316 285.663318,145.635499 C298.372443,147.790678 311.51892,147.388277 324.068801,144.4607 C327.646861,143.62651 331.571604,142.275379 333.185388,139.009454 C334.278007,136.799266 334.041806,134.200994 333.780462,131.754942 C333.15872,125.926916 332.536217,120.098891 331.914476,114.270866 C331.647035,111.76905 331.355975,109.188864 330.116302,106.992239 C328.25184,103.688637 324.608253,101.84091 321.170389,100.180819 C317.656331,98.483051 314.113319,96.7747327 310.331821,95.7845562 C307.100442,94.9383094 303.886588,94.7687586 300.594254,95.3143354 C298.008237,95.7423569 296.661892,97.1703512 294.442367,98.450648 C290.007888,101.008227 284.329926,102.260642 281.271507,106.671977" id="Fill-90" fill="#FCAD51"></path>
                <path d="M297.05063,108.273951 C297.255977,104.950497 297.547437,101.387645 299.593543,98.8127849 C300.955161,97.0989984 303.055733,96.0091669 305.203409,96.000047 C307.350349,95.9916871 309.494345,97.0989984 310.699192,98.933624 C312.402319,101.524444 312.07921,104.945937 311.688389,108.050512 C310.914107,114.206464 310.139825,120.363176 309.365543,126.519128 C309.108676,128.557432 308.738463,130.811574 307.16929,132.077724 C303.853567,134.752903 297.507692,131.122411 296.378653,127.390081 C295.610995,124.850181 296.221883,121.752445 296.380861,119.172265 C296.604608,115.539494 296.828355,111.906722 297.05063,108.273951" id="Fill-91" fill="#F9DD9F"></path>
                <path d="M299.493757,103.08484 C300.141588,105.078146 301.611151,106.834244 303.546435,107.600089 C305.482465,108.365934 307.858842,108.032336 309.372439,106.594776 C310.629291,105.400449 311.179351,103.654141 311.681644,101.987656 C311.998843,100.934901 312.266782,99.6479494 311.514462,98.8519824 C311.014408,98.3233458 310.231487,98.2149076 309.51126,98.136591 C307.096073,97.8745319 302.885169,96.5416449 300.564769,97.1636588 C298.340647,97.7593162 298.989971,101.050116 299.493757,103.08484" id="Fill-92" fill="#F1A482"></path>
                <path d="M304.014744,101.677441 C306.629132,102.547425 309.645179,101.583324 311.614187,99.6764775 C313.583997,97.7688397 314.601372,95.0600256 314.899609,92.3535843 C315.116873,90.3763478 314.980582,88.3619392 314.499554,86.4297837 C314.215747,85.2932682 313.742736,84.0974355 312.727767,83.4916102 C311.913226,83.0067919 310.907076,82.9965102 309.956243,83.0004647 C307.235228,83.0115372 304.514212,83.0226097 301.793196,83.0336823 C300.645944,83.0384276 299.444977,83.0558273 298.437223,83.5952174 C297.121612,84.2991136 296.397664,85.7678049 296.125082,87.2198874 C295.237585,91.9597188 299.198851,100.075088 304.014744,101.677441" id="Fill-93" fill="#FCC8A1"></path>
                <path d="M311.776373,148.057733 C314.657614,148.015451 318.117882,148.302651 319.492879,150.920161 C320.909566,153.619044 319.098368,156.869989 317.248569,159.272098 C315.63038,161.375041 313.926495,163.408577 312.143863,165.365526 C311.070732,166.543845 309.847054,167.75886 308.29526,167.967878 C306.090324,168.263854 304.198834,166.460078 302.666341,164.795913 C300.06921,161.978161 297.473623,159.161207 294.878036,156.343455 C293.413483,154.755079 289.612746,151.912597 291.528169,149.325403 C293.078419,147.230438 298.364553,148.254785 300.621988,148.221278 C304.339345,148.167029 308.059017,148.057733 311.776373,148.057733" id="Fill-94" fill="#734130"></path>
                <path d="M325.999856,186.454476 C326.016509,188.673011 324.585868,190.606492 323.228651,192.351975 C321.701119,194.318317 319.568026,196.512397 317.160158,195.893378 C315.915727,195.574697 314.986189,194.546819 314.137644,193.576258 C313.677417,193.045888 313.217189,192.515518 312.756205,191.985148 C311.754756,190.834995 310.75255,189.684841 309.750344,188.534687 C306.599149,184.913041 303.447953,181.299037 300.296757,177.676626 C299.610201,176.893299 298.923644,176.102329 298.236331,175.319002 C297.711006,174.715267 297.186437,174.111532 296.660355,173.508561 C293.598479,170.000019 290.536604,166.483835 287.481542,162.976058 C285.542228,160.74071 283.457579,158.008617 284.12824,155.120623 C284.879894,151.848991 288.976524,150.364872 292.176922,151.253662 C295.384132,152.134809 297.848771,154.64757 300.159749,157.061746 C302.122528,159.117503 304.183711,161.1083 306.284256,163.090691 C307.14037,163.898474 308.005567,164.706256 308.869251,165.513274 C311.681332,168.140668 314.501739,170.775704 317.152588,173.532252 C318.291803,174.715267 319.406038,175.914331 320.472585,177.154663 C321.611799,178.459953 322.694999,179.805747 323.713101,181.19281 C324.860642,182.7587 325.99153,184.504946 325.999856,186.454476" id="Fill-95" fill="#A85F46"></path>
                <path d="M321,176.72981 C320.917684,176.898203 320.82605,177.065808 320.735192,177.242069 C319.880974,178.888222 319.027533,180.535161 318.174091,182.181314 C316.499824,185.423259 314.817014,188.665203 313.134204,191.907935 L313.083727,192 C312.056336,190.815746 311.028168,189.631492 310,188.447238 C311.044476,182.794293 314.344088,177.788164 317.593999,173 C318.762725,174.21809 319.905824,175.452704 321,176.72981" id="Fill-96" fill="#734130"></path>
                <path d="M309,166.325265 C308.384922,168.236089 307.176835,170.193126 306.227166,171.783401 C305.497473,173.004715 304.692319,174.187153 303.825941,175.306507 C303.012245,176.355444 302.084644,177.397045 300.93778,178 C300.292091,177.24814 299.646401,176.488945 299,175.737085 C299.372321,175.055643 299.790204,174.405742 300.208799,173.756576 C302.138748,170.772608 304.060867,167.789374 305.991528,164.798805 C306.150281,164.547941 306.341069,164.2582 306.568876,164 C307.37403,164.775333 308.187727,165.550665 309,166.325265" id="Fill-97" fill="#734130"></path>
                <path d="M298.126978,180.525469 C296.938136,182.619469 295.778327,184.771973 295.261838,187.121265 C294.745348,189.469797 294.94247,192.072861 296.308569,194.05669 C298.793219,197.664205 304.583858,197.878468 307.996814,195.121925 C310.106321,193.418461 311.398308,190.936964 312.630701,188.529168 C317.291329,179.431361 321.951193,170.332794 326.611822,161.234227 C327.585206,159.335495 328.571578,157.394974 328.897822,155.288817 C329.225594,153.181901 328.7878,150.841727 327.249793,149.357084 C321.627242,143.927576 314.541558,156.314543 311.905629,159.748065 C306.839297,166.34766 302.230623,173.295242 298.126978,180.525469" id="Fill-98" fill="#A85F46"></path>
                <path d="M321.098028,153 L282.901972,153 C281.299345,153 280,151.674565 280,150.040531 L280,127.959469 C280,126.324663 281.299345,125 282.901972,125 L321.098028,125 C322.700655,125 324,126.324663 324,127.959469 L324,150.040531 C324,151.674565 322.700655,153 321.098028,153" id="Fill-99" fill="#F2F1EF"></path>
                <path d="M325.755556,139.010153 C327.026079,139.055565 328.32223,139.395003 329.306964,140.190102 C330.928511,141.49936 331.405346,143.919295 330.650487,145.852009 C329.895629,147.784724 328.073717,149.200201 326.059985,149.758233 C324.642684,150.151549 323.007933,150.121531 321.832156,149.242534 C321.001967,148.621387 320.497951,147.646948 320.255651,146.64326 C320.012574,145.640342 320.005585,144.598169 320.000149,143.566772 C319.978404,139.840659 322.345491,138.887771 325.755556,139.010153" id="Fill-100" fill="#FCC8A1"></path>
                <path d="M305.494342,203.998927 C304.383548,203.98229 303.300988,203.665442 302.233287,203.351618 C300.351252,202.798834 298.46996,202.245294 296.587925,201.691755 C295.413975,201.34617 294.204361,200.982437 293.262972,200.189181 C292.321582,199.395925 291.715289,198.052911 292.135831,196.885335 C292.44195,196.035364 293.23548,195.437208 294.088452,195.18388 C294.942909,194.930553 295.853835,194.976681 296.73504,195.097673 C299.640195,195.496192 302.42424,196.712164 304.744649,198.530074 C306.68984,200.054577 310.564618,204.075303 305.494342,203.998927" id="Fill-101" fill="#655B5A"></path>
                <path d="M291.043688,196.388579 C291.845187,197.940268 293.702379,198.794736 295.522237,199.081042 C297.342094,199.366606 299.206435,199.201201 301.048534,199.315427 C302.889839,199.429652 304.824878,199.886555 306.083923,201.147488 C306.929112,201.994538 307.818785,203.296266 308.99919,202.939496 C309.659296,202.73923 310.018342,202.033849 309.999278,201.386323 C309.980213,200.738797 309.668828,200.13355 309.363797,199.552037 C307.822757,196.613322 305.70899,188.949076 301.34165,189.000255 C299.369277,189.023249 297.208643,190.350937 295.685873,191.397511 C294.924091,191.920427 290.516239,195.367224 291.043688,196.388579" id="Fill-102" fill="#1E2432"></path>
                <path d="M330.350773,199.490141 C331.48744,199.034692 332.782622,198.393635 332.976706,197.221842 C333.160737,196.108936 332.223567,195.119025 331.251601,194.492876 C328.26147,193.051243 325.050966,192.51678 321.773189,193.502964 C317.484784,194.793278 316.525189,198.462213 315.197531,202.175127 C315.027417,202.649211 314.868129,203.212 315.168921,203.621978 C315.580286,204.183276 316.471835,204.014066 317.144557,203.785969 C318.48536,203.32903 319.826163,202.87209 321.168513,202.415151 C322.215484,202.058097 323.072237,201.976846 324.13158,201.815091 C326.262637,201.491581 328.370497,200.284753 330.350773,199.490141" id="Fill-103" fill="#655B5A"></path>
                <path d="M330.803969,189.620309 C332.164823,190.742832 333.560857,191.905946 334.378009,193.452343 C335.194361,194.997959 335.295905,197.038484 334.144537,198.364747 C333.012358,199.669153 331.033443,199.925195 329.300794,199.681643 C327.568144,199.437311 325.906655,198.792524 324.162012,198.64811 C320.430459,198.338206 316.623747,200.614477 315.211721,204 C314.472127,200.174211 315.805795,196.286753 317.120274,192.61006 C317.719945,190.934863 318.345202,189.213609 319.545344,187.8811 C320.625552,186.680516 323.277697,184.697756 325.050325,185.038885 C326.913303,185.397967 329.372754,188.44002 330.803969,189.620309" id="Fill-104" fill="#1E2432"></path>
                <path d="M305,139.500355 C305,140.880375 303.879824,142 302.499291,142 C301.119467,142 300,140.880375 300,139.500355 C300,138.118916 301.119467,137 302.499291,137 C303.879824,137 305,138.118916 305,139.500355" id="Fill-105" fill="#FFFEFC"></path>
                <path d="M304.915503,72.0052393 C302.326604,71.9350201 299.854515,72.5606098 297.971055,74.4884477 C296.253267,76.246323 294.997372,78.498127 294.402636,80.9342565 C293.906385,82.9682212 293.87203,85.1202819 294.282009,87.1741953 C294.478982,88.1580629 294.788184,89.1443243 295.127924,90.0795172 C295.285197,90.512004 295.466138,90.8638982 295.747855,91.2381349 C295.862374,91.3913406 296.605986,92.0392729 296.603696,92.1765196 C296.644159,90.0108938 297.02589,87.8524495 297.729038,85.8144951 C297.987088,85.0644257 298.365002,84.2521166 299.087236,83.9927841 C299.979723,83.6704138 300.883662,84.3422845 301.702093,84.8362131 C304.154332,86.3164032 307.361634,86.3164032 309.813873,84.8362131 C310.305542,84.5393772 310.863633,84.1739178 311.399583,84.3694146 C311.900414,84.5521443 312.13327,85.1394327 312.300468,85.6652792 C313.066983,88.067895 313.697602,90.5183875 314.184691,93 C315.054274,89.9869554 315.929964,86.9284279 315.996386,83.7829242 C316.062807,80.6366226 315.218418,77.3371154 313.078435,75.1228149 C310.96899,72.9420281 307.881551,72.0866298 304.915503,72.0052393" id="Fill-106" fill="#302833"></path>
            </g>
        </g>
    </g>
</svg>